<svg
  width="58"
  height="59"
  viewBox="0 0 58 59"
  fill="none"
  xmlns="http://www.w3.org/2000/svg"
>
  <path
    fill-rule="evenodd"
    clip-rule="evenodd"
    d="M24.1667 29.1306L48.3333 25.1028V35.4609C46.9028 34.7409 45.2477 34.3333 43.5 34.3333C38.2488 34.3333 33.8333 38.0129 33.8333 42.7917C33.8333 47.5705 38.2488 51.25 43.5 51.25C48.7512 51.25 53.1667 47.5705 53.1667 42.7917V4.89722L19.3333 10.5361V37.8776C17.9028 37.1576 16.2477 36.75 14.5 36.75C9.24877 36.75 4.83333 40.4295 4.83333 45.2083C4.83333 49.9871 9.24877 53.6667 14.5 53.6667C19.7512 53.6667 24.1667 49.9871 24.1667 45.2083V29.1306ZM19.3333 45.2083C19.3333 47.103 17.2569 48.8333 14.5 48.8333C11.7431 48.8333 9.66667 47.103 9.66667 45.2083C9.66667 43.3137 11.7431 41.5833 14.5 41.5833C17.2569 41.5833 19.3333 43.3137 19.3333 45.2083ZM43.5 46.4167C46.2569 46.4167 48.3333 44.6863 48.3333 42.7917C48.3333 40.897 46.2569 39.1667 43.5 39.1667C40.7431 39.1667 38.6667 40.897 38.6667 42.7917C38.6667 44.6863 40.7431 46.4167 43.5 46.4167ZM24.1667 24.2305V14.6305L48.3333 10.6028V20.2028L24.1667 24.2305Z"
    fill="#4C269A"
  />
</svg>
