<svg
  width="224"
  height="176"
  viewBox="0 0 224 176"
  fill="none"
  xmlns="http://www.w3.org/2000/svg"
>
  <g clip-path="url(#clip0_4_3988)">
    <path
      opacity="0.1"
      d="M78.5755 172.591C100.155 172.591 117.649 169.263 117.649 165.158C117.649 161.053 100.155 157.726 78.5755 157.726C56.9957 157.726 39.5019 161.053 39.5019 165.158C39.5019 169.263 56.9957 172.591 78.5755 172.591Z"
      fill="#AF8CF8"
    />
    <path
      opacity="0.1"
      d="M130.145 24.8209C115.785 24.3218 102.108 19.6652 89.0479 14.5719C75.9878 9.47858 63.052 3.83716 49.0357 1.139C40.0206 -0.596646 29.7096 -0.843959 22.4474 4.00427C15.4559 8.68316 13.1971 16.7375 11.9834 24.2171C11.0692 29.8451 10.5323 35.7695 13.0351 41.0388C14.7747 44.6973 17.8589 47.772 19.9934 51.2767C27.4198 63.4686 22.17 78.5034 14.1246 90.4079C10.3525 95.9914 5.97036 101.325 3.05703 107.263C0.143701 113.201 -1.20313 120.028 1.34631 126.101C3.87134 132.117 9.89103 136.626 16.4122 139.801C29.6564 146.252 45.257 148.096 60.4804 149.144C94.1689 151.456 128.035 150.456 161.812 149.451C174.313 149.081 186.867 148.705 199.164 146.764C205.994 145.686 213.043 143.975 218.002 139.844C224.295 134.601 225.854 125.725 221.636 119.152C214.563 108.123 195.01 105.385 190.06 93.5517C187.34 87.0368 190.133 79.7823 194.09 73.7421C202.574 60.7816 216.795 49.4118 217.543 34.5998C218.057 24.4265 211.221 14.2377 200.651 9.42288C189.572 4.37635 174.207 5.01135 166.037 13.3643C157.616 21.9556 142.826 25.2643 130.145 24.8209Z"
      fill="#AF8CF8"
    />
    <path
      d="M118.734 80.5974L111.938 75.9964L115.366 70.8719L97.4156 69.4349L90.9655 74.4435L82.8911 69.8983L76.157 70.7115L76.0771 68.9291C75.9937 67.0709 75.8078 65.2188 75.5202 63.3813C75.549 62.8242 75.569 62.1848 75.5668 61.4896C75.5668 58.5598 75.1718 54.6763 73.4367 52.0873L73.8361 48.4823L70.5966 44.6389C71.1168 43.5984 71.71 42.5962 72.3716 41.64C72.4826 41.4796 72.5935 41.3236 72.7134 41.1721C76.918 40.8669 80.2352 37.3956 80.2352 33.1511C80.2352 32.9551 80.2352 32.759 80.213 32.5652C80.213 32.4872 80.1975 32.407 80.1886 32.329C80.5991 32.5518 81.014 32.7746 81.4289 32.9974C81.5066 33.1088 81.5953 33.2202 81.693 33.3517L81.7129 33.3762L81.8372 33.5299L81.8771 33.5767C81.9215 33.6302 81.9681 33.6814 82.0147 33.7349L82.0458 33.7705C82.1634 33.902 82.2876 34.0357 82.4207 34.1671C82.4366 34.1801 82.4514 34.1942 82.4651 34.2095L82.6315 34.3654L82.6781 34.4078C82.8201 34.5348 82.971 34.6573 83.1219 34.7732L83.1707 34.8088L83.3615 34.9403L83.4237 34.9804C83.4969 35.0249 83.5723 35.0717 83.6455 35.114L83.6722 35.1296C83.7587 35.1764 83.8475 35.221 83.9362 35.2633L83.9806 35.2811C84.056 35.3138 84.13 35.345 84.2025 35.3747L84.2712 35.3992C84.3489 35.426 84.4243 35.4505 84.5042 35.4728L84.553 35.4861C84.6507 35.5106 84.7483 35.5307 84.8481 35.5463H84.8592C84.9533 35.5616 85.0481 35.5712 85.1432 35.5752H85.2076C85.2926 35.5797 85.3778 35.5797 85.4628 35.5752H85.5182C85.6247 35.5691 85.7306 35.5564 85.8355 35.5374C86.332 35.4718 86.8087 35.3001 87.2334 35.0338C87.3415 34.9612 87.4374 34.8717 87.5174 34.7687C87.9612 34.1849 87.473 33.5455 87.473 33.5455C87.3 33.1311 86.1772 32.8392 86.1772 32.8392C86.1772 32.8392 82.6271 31.3509 82.6271 30.1656C82.6271 28.9802 81.7396 22.8308 72.578 21.4249C72.578 21.4249 66.6182 21.0885 64.943 24.2924L64.9075 24.6667C64.4149 24.9764 64.0067 25.5981 63.5207 25.7808C63.3108 25.826 63.1083 25.9011 62.9194 26.0036V25.9612C62.8633 26.0105 62.8174 26.0703 62.7841 26.1372C62.6797 26.3458 62.6171 26.5729 62.5999 26.8057C62.5499 27.09 62.4516 27.3636 62.3092 27.6144C62.2696 27.6857 62.2251 27.7542 62.1761 27.8194L62.1384 27.8796C62.396 27.8997 62.6547 27.8577 62.8928 27.757C62.8553 28.0621 62.7808 28.3614 62.6709 28.6483C62.812 28.6528 62.9514 28.6166 63.0725 28.544C63.1937 28.4713 63.2915 28.3652 63.3543 28.2383V28.2205L63.3832 28.1804C63.439 28.0772 63.485 27.9691 63.5207 27.8573L63.4963 27.884C63.5407 27.7392 63.5806 27.5922 63.6295 27.4496C63.6518 27.3692 63.6887 27.2937 63.7382 27.2268C63.7974 27.1668 63.8698 27.1217 63.9496 27.095C64.0294 27.0683 64.1143 27.0607 64.1975 27.073L64.1065 29.0047H64.1464C64.093 29.1453 64.0277 29.2809 63.9512 29.4102C63.6361 29.9227 63.0636 30.2725 62.8529 30.834C62.762 31.1048 62.7272 31.3914 62.7508 31.6762C62.7508 31.8433 62.7708 32.0126 62.7841 32.1797V32.1663C62.8151 32.6119 62.824 33.0353 62.5844 33.394C62.4202 33.6391 62.1561 33.824 62.0652 34.1025C62.04 34.1801 62.0287 34.2616 62.0319 34.3431C62.0497 34.5873 62.1005 34.8279 62.1828 35.0583C62.1837 35.0539 62.1837 35.0494 62.1828 35.045C62.2381 35.2145 62.2511 35.3951 62.2205 35.5708C62.1206 36.0164 61.5815 36.3885 61.6081 36.814C61.6066 36.87 61.6148 36.9258 61.6325 36.9789C61.7362 37.1868 61.9159 37.3464 62.134 37.4245C62.4761 37.6199 62.8689 37.7068 63.2611 37.6741C63.4081 37.6474 63.5502 37.5986 63.6827 37.5292C63.5274 37.888 63.3676 38.2422 63.2057 38.5787C63.1812 38.6321 63.1546 38.6856 63.128 38.7391C63.128 38.7391 61.7568 37.8189 60.9779 39.6949C60.7506 40.0848 60.588 40.5092 60.4965 40.9515C60.4574 41.1285 60.4025 41.3015 60.3323 41.4684C59.9865 42.0562 59.469 42.5229 58.8501 42.8053C57.2614 43.5361 50.8445 51.5726 50.7314 53.6536C50.6758 54.4659 50.5391 55.2706 50.3231 56.0554C49.818 57.9037 49.6882 59.8351 49.9415 61.7347C50.0208 62.3487 50.1521 62.9547 50.3342 63.5461C51.0154 65.6249 51.4703 69.5039 51.4703 69.5039L52.2069 76.2371C52.1796 77.1664 52.2196 78.0965 52.3267 79.0199C51.5745 79.8822 48.5547 83.476 49.7085 84.4541C50.596 85.225 52.1492 85.098 53.0212 84.9398C52.2868 86.7646 51.1308 89.9373 50.9777 92.1164C50.7558 95.3403 51.3571 99.6115 52.309 101.251C53.2608 102.891 56.4338 107.098 56.4338 107.098C56.4338 107.098 56.2851 112.868 57.4189 114.965C58.5528 117.062 59.0098 121.411 59.0098 121.411C59.0098 121.411 60.0682 125.083 59.5379 126.433C59.0076 127.783 60.5209 128.906 58.9322 129.804C57.3435 130.702 55.3111 150.939 55.3111 150.939C55.3111 150.939 54.4923 164.203 55.3111 164.878C55.3549 164.91 55.4017 164.937 55.4508 164.96V169.416C55.4508 169.416 54.8828 170.352 57.1926 170.541C58.7746 170.668 63.2589 170.956 65.9193 171.123L67.9806 171.252C67.9806 171.252 72.862 172.228 75.0187 171.252C77.1754 170.276 80.9985 170.298 80.4305 167.721C80.3551 167.37 80.2543 167.025 80.1287 166.689C79.5052 165.089 78.4468 164.907 76.4965 164.461C76.3833 164.436 76.2746 164.414 76.1747 164.396C74.1201 164.038 73.4456 164.998 72.294 163.748C71.2933 162.667 68.1071 161.458 67.022 161.074C67.0487 160.994 67.082 160.916 67.1086 160.834C66.8013 160.781 66.5156 160.641 66.2854 160.43L69.2253 160.618L70.976 160.727C70.976 160.727 75.1252 161.558 76.9669 160.727C78.8085 159.896 82.048 159.918 81.5643 157.728C81.5006 157.429 81.4153 157.136 81.3091 156.85C80.7788 155.491 79.878 155.342 78.2205 154.965C78.1251 154.945 78.0363 154.925 77.9476 154.909C76.2014 154.604 75.6289 155.42 74.6504 154.359C73.8117 153.454 71.1646 152.441 70.2127 152.095C70.2127 151.601 69.5471 150.897 69.1277 150.19C68.6351 149.366 69.5449 146.481 69.5449 146.481L70.0641 134.509C70.2618 134.421 70.4709 134.361 70.6853 134.331C70.6853 134.331 73.0329 132.081 72.5026 129.683C72.3945 128.958 72.3382 128.226 72.3339 127.493C73.1061 126.774 74.1689 125.711 74.4707 125.056C74.9632 123.989 74.4707 118.817 74.4707 118.817V99.0434L78.398 99.4422L81.9614 99.8098L83.0465 99.9212L86.6099 100.282L94.7996 101.113L102.179 99.7095L105.372 99.1035L111.938 97.8558V81.7248L118.734 80.5974ZM64.6812 27.1443L64.2241 27.0953C64.375 27.102 64.5347 27.131 64.6812 27.1443Z"
      fill="url(#paint0_linear_4_3988)"
    />
    <path
      d="M102.805 91.0714C100.586 94.2597 92.6096 92.5708 92.6096 92.5708L86.4279 86.7623L85.5959 85.9758L86.9915 82.9991C86.9915 82.9991 87.4353 83.1217 88.1964 83.34C92.1925 84.5053 104.678 88.391 102.805 91.0714Z"
      fill="#EFB7B9"
    />
    <path
      opacity="0.1"
      d="M88.1919 83.34C87.919 84.2936 87.1713 85.7218 86.4279 86.7623L85.5959 85.9758L86.9915 82.9991C86.9915 82.9991 87.4397 83.1217 88.1919 83.34Z"
      fill="black"
    />
    <path
      d="M66.991 49.7723C66.991 49.7723 61.293 52.3101 61.5726 58.5419C61.7737 62.5568 62.2094 66.5563 62.8773 70.5199C62.8773 70.5199 61.7124 79.8977 66.5627 82.3152C71.4131 84.7326 75.9018 86.72 75.9018 86.72C75.9018 86.72 83.4902 87.5399 84.4332 87.8786C85.3762 88.2173 88.3228 83.0393 87.7792 82.2327C87.2356 81.4262 80.2707 79.7351 79.3831 78.3893C78.4956 77.0436 76.4432 76.2125 76.4432 76.2125C76.4432 76.2125 74.3242 74.9247 74.18 73.7617C74.0358 72.5986 74.5949 71.7319 74.7369 71.2217C74.8789 70.7115 75.2384 65.7853 75.2384 65.7853C75.2384 65.7853 77.6303 48.2506 66.991 49.7723Z"
      fill="#DCE6F2"
    />
    <path
      opacity="0.1"
      d="M70.7519 70.2637C70.7519 70.2637 62.9349 71.5782 63.6916 74.3254C63.6916 74.3254 66.5295 71.3599 70.7519 70.2637Z"
      fill="black"
    />
    <path
      opacity="0.1"
      d="M70.8118 71.3755C70.8118 71.3755 66.5139 74.898 67.3549 75.0785C68.1958 75.259 70.8118 71.3755 70.8118 71.3755Z"
      fill="black"
    />
    <path
      opacity="0.1"
      d="M72.8775 72.6031C72.8775 72.6031 71.726 74.9715 72.4338 74.8111C73.1416 74.6507 72.8775 72.6031 72.8775 72.6031Z"
      fill="black"
    />
    <path
      opacity="0.1"
      d="M88.4804 83.5918L88.0055 83.4559C88.1409 83.0103 88.1786 82.6494 88.0677 82.4823C87.5241 81.6757 80.5636 79.9868 79.6783 78.6389C78.793 77.2909 76.7383 76.4621 76.7383 76.4621C76.7383 76.4621 74.6193 75.1743 74.4751 74.0112C74.3309 72.8482 74.89 71.9815 75.032 71.4712C75.1741 70.961 75.5335 66.0326 75.5335 66.0326C75.5335 66.0326 77.9187 48.5001 67.2794 50.0218C67.2794 50.0218 61.5815 52.5618 61.8588 58.7937C62.0601 62.8086 62.4965 66.8082 63.1657 70.7716C63.1657 70.7716 62.0008 80.1495 66.8512 82.5669C71.7016 84.9843 76.1903 86.9718 76.1903 86.9718C76.1903 86.9718 83.7765 87.7895 84.7217 88.1303C85.0789 88.2596 85.7246 87.5934 86.357 86.6777L86.7164 87.0141L92.8981 92.8204C92.8981 92.8204 100.875 94.5115 103.094 91.3231C104.969 88.6406 92.4854 84.7549 88.4804 83.5918Z"
      fill="black"
    />
    <path
      d="M63.7116 26.3823C63.4943 26.4249 63.2863 26.5056 63.0969 26.6206C62.8751 26.8056 62.8751 27.122 62.8196 27.3982C62.7544 27.7826 62.6026 28.1468 62.3758 28.4632C62.6283 28.4818 62.8816 28.4398 63.1147 28.3407C63.0767 28.6457 63.0022 28.9449 62.8928 29.2319C63.0311 29.2355 63.1674 29.1989 63.2855 29.1265C63.4035 29.0542 63.4983 28.9492 63.5585 28.8242C63.6759 28.5731 63.7688 28.3112 63.8358 28.0421C63.8567 27.9617 63.8928 27.886 63.9423 27.8193C64.1465 27.5765 64.5259 27.6857 64.841 27.7168C65.1032 27.739 65.3665 27.6904 65.6037 27.576C65.8409 27.4616 66.0434 27.2856 66.19 27.0663C66.5251 26.556 66.545 25.2504 65.7463 25.1123C64.912 24.9741 64.3928 26.1283 63.7116 26.3823Z"
      fill="#965D7B"
    />
    <g opacity="0.1">
      <path
        opacity="0.1"
        d="M63.0747 26.8947C63.0947 26.7856 63.108 26.6719 63.1324 26.5627C62.9216 26.7477 62.9105 27.0618 62.8551 27.3403C62.8271 27.501 62.7833 27.6585 62.7242 27.8105C62.8989 27.5308 63.0179 27.2199 63.0747 26.8947Z"
        fill="black"
      />
      <path
        opacity="0.1"
        d="M63.1457 28.7351C63.2562 28.4484 63.3308 28.149 63.3676 27.8439C63.1455 27.9378 62.9049 27.9797 62.6643 27.9664C62.5942 28.1231 62.5087 28.2724 62.4091 28.412C62.6607 28.4316 62.9133 28.3903 63.1457 28.2917C63.1089 28.5969 63.0343 28.8963 62.9239 29.1829C63.0621 29.1862 63.1983 29.1495 63.3163 29.0772C63.4343 29.0049 63.5291 28.9001 63.5895 28.7752C63.6448 28.6739 63.6894 28.5672 63.7226 28.4566C63.6575 28.548 63.5705 28.6214 63.4697 28.67C63.3689 28.7187 63.2575 28.7411 63.1457 28.7351Z"
        fill="black"
      />
      <path
        opacity="0.1"
        d="M65.0939 27.2201C64.7788 27.1889 64.3972 27.0797 64.193 27.3226C64.1444 27.3898 64.1083 27.4652 64.0865 27.5454C64.0665 27.6033 64.0488 27.6634 64.0333 27.7236C64.2441 27.5565 64.5858 27.6456 64.872 27.6746C65.1341 27.6961 65.3972 27.6471 65.6343 27.5328C65.8714 27.4185 66.0739 27.2429 66.221 27.024C66.2883 26.9158 66.3384 26.7978 66.3697 26.6742C66.2177 26.863 66.022 27.0116 65.7995 27.1067C65.5771 27.2019 65.3348 27.2408 65.0939 27.2201Z"
        fill="black"
      />
    </g>
    <path
      d="M70.3902 44.7837L73.774 48.8699L73.3324 52.994L69.2431 46.5661L70.3902 44.7837Z"
      fill="#DCE6F2"
    />
    <path
      opacity="0.1"
      d="M73.7717 48.8699L73.3568 52.7489L73.3302 52.994L69.6403 47.1922L69.2431 46.5661L69.3585 46.3857L70.388 44.7837L70.6166 45.06L73.7717 48.8699Z"
      fill="black"
    />
    <path
      d="M75.529 39.2515C74.3841 39.5813 73.2902 40.7131 72.3384 42.0878C71.695 43.0363 71.1196 44.0296 70.6166 45.06C70.3037 45.6883 70.0286 46.2921 69.8 46.818L69.6403 47.1923C69.2542 48.108 69.039 48.7207 69.039 48.7207C69.039 48.7207 60.2746 42.1034 61.6614 41.6578C62.1273 41.5085 62.7397 40.5059 63.3454 39.2426L63.4209 39.0822C63.8047 38.2712 64.1819 37.3666 64.517 36.5155C65.2026 34.7665 65.7107 33.2469 65.7107 33.2469C65.7107 33.2469 79.0237 38.2489 75.529 39.2515Z"
      fill="#EFB7B9"
    />
    <path
      d="M80.7722 32.8749C80.7722 32.8749 82.7957 36.5511 85.5138 36.0498C88.2319 35.5485 87.1136 34.0758 87.1136 34.0758L80.7722 32.8749Z"
      fill="#444053"
    />
    <path
      d="M76.8515 160.13C75.0587 160.952 71.0049 160.13 71.0049 160.13L69.2964 160.023C67.0775 159.88 63.3632 159.639 62.0497 159.532C60.1326 159.374 60.603 158.586 60.603 158.586V153.82L69.9043 151.454C69.9043 151.454 73.5809 152.717 74.5883 153.82C75.5446 154.871 76.1037 154.063 77.81 154.366C77.8943 154.381 77.9831 154.399 78.0763 154.421C79.696 154.793 80.5747 154.941 81.0939 156.288C81.1982 156.572 81.282 156.862 81.3446 157.157C81.8239 159.328 78.6421 159.312 76.8515 160.13Z"
      fill="#A36468"
    />
    <path
      opacity="0.1"
      d="M81.0939 156.289C80.7606 156.498 80.4102 156.678 80.0466 156.828C78.8262 157.387 77.6658 158.069 76.4321 158.597C75.1985 159.125 73.8694 159.501 72.5336 159.401C71.8347 159.35 71.1202 159.178 70.4524 159.379C70.0393 159.539 69.6503 159.756 69.2964 160.023C67.0775 159.88 63.3632 159.64 62.0497 159.533C60.1326 159.374 60.603 158.586 60.603 158.586V158.029C60.6718 158.029 60.7494 158.009 60.8382 158.002C61.2974 157.995 61.7546 158.063 62.1917 158.205C63.1546 158.468 64.1132 158.726 65.0761 158.984C65.1553 158.684 65.2946 158.404 65.4853 158.159C65.676 157.915 65.9143 157.712 66.1856 157.563C66.7352 157.27 67.3521 157.128 67.9739 157.151C69.4672 157.171 70.8806 157.882 72.3717 157.953C72.7885 157.991 73.2082 157.921 73.5898 157.748C73.7939 157.645 73.9737 157.496 74.1734 157.383C74.4929 157.227 74.8306 157.113 75.1785 157.042C76.1563 156.797 77.1163 156.486 78.0519 156.11C78.3181 156.006 78.6288 155.816 78.5933 155.531C78.5467 155.152 77.9542 155.108 77.7989 154.76C77.7715 154.697 77.7589 154.629 77.7619 154.561C77.765 154.492 77.7838 154.426 77.8167 154.366C77.901 154.381 77.9898 154.399 78.0829 154.421C79.696 154.794 80.5747 154.941 81.0939 156.289Z"
      fill="black"
    />
    <path
      d="M74.9566 170.557C72.8487 171.524 68.0782 170.557 68.0782 170.557L66.0702 170.439C63.4697 170.272 59.0897 169.993 57.5432 169.862C55.2867 169.675 55.8414 168.748 55.8414 168.748V163.131L66.7869 160.346C66.7869 160.346 71.1136 161.832 72.2984 163.131C73.4234 164.367 74.0735 163.416 76.0904 163.772C76.1903 163.79 76.2946 163.813 76.4033 163.837C78.3093 164.283 79.3432 164.45 79.9534 166.036C80.0769 166.369 80.1756 166.711 80.2485 167.059C80.7988 169.612 77.0645 169.592 74.9566 170.557Z"
      fill="#A36468"
    />
    <path
      opacity="0.1"
      d="M79.949 166.036C79.5569 166.282 79.145 166.495 78.7175 166.671C77.2819 167.329 75.9151 168.131 74.464 168.752C73.0129 169.374 71.4486 169.815 69.8755 169.699C69.0545 169.639 68.2136 169.432 67.4348 169.672C66.9468 169.863 66.4875 170.121 66.0702 170.439C63.4697 170.272 59.0897 169.993 57.5432 169.862C55.2867 169.675 55.8414 168.748 55.8414 168.748V168.093C55.9332 168.078 56.0258 168.067 56.1187 168.062C56.6593 168.052 57.1977 168.132 57.7118 168.3L61.1044 169.218C61.1989 168.864 61.3644 168.533 61.5906 168.245C61.8168 167.957 62.0991 167.719 62.4202 167.545C63.0669 167.198 63.7935 167.031 64.5259 167.059C66.2832 167.083 67.9451 167.919 69.7002 168.004C70.189 168.048 70.681 167.966 71.1291 167.765C71.371 167.643 71.5729 167.467 71.817 167.335C72.1922 167.151 72.5898 167.016 72.9996 166.934C74.1439 166.644 75.2676 166.278 76.3633 165.838C76.6762 165.713 77.0423 165.49 77.0002 165.156C76.9447 164.711 76.248 164.657 76.0638 164.247C76.0328 164.173 76.0186 164.093 76.0225 164.013C76.0263 163.933 76.048 163.854 76.086 163.784C76.1858 163.802 76.2901 163.824 76.3988 163.848C78.3048 164.276 79.3388 164.45 79.949 166.036Z"
      fill="black"
    />
    <path
      d="M70.1861 132.014L69.5937 146.013C69.5937 146.013 68.7061 148.871 69.1876 149.689C69.6691 150.507 70.4812 151.322 70.1861 151.806C69.891 152.289 66.3408 157.516 65.1937 155.511C64.0466 153.506 62.915 144.816 62.915 144.816L63.9734 134.084L70.1861 132.014Z"
      fill="#444053"
    />
    <path
      d="M72.7555 97.1361L74.4019 99.3463V118.57C74.4019 118.57 74.8834 123.694 74.4019 124.753C73.9204 125.811 71.4797 127.928 71.4797 127.928L69.4272 117.345L69.871 106.149L72.7555 97.1361Z"
      fill="#444053"
    />
    <path
      opacity="0.1"
      d="M70.1861 132.014L69.5937 146.013C69.5937 146.013 68.7061 148.871 69.1876 149.689C69.6691 150.507 70.4812 151.322 70.1861 151.806C69.891 152.289 66.3408 157.516 65.1937 155.511C64.0466 153.506 62.915 144.816 62.915 144.816L63.9734 134.084L70.1861 132.014Z"
      fill="black"
    />
    <path
      opacity="0.1"
      d="M72.7555 97.1361L74.4019 99.3463V118.57C74.4019 118.57 74.8834 123.694 74.4019 124.753C73.9204 125.811 71.4797 127.928 71.4797 127.928L69.4272 117.345L69.871 106.149L72.7555 97.1361Z"
      fill="black"
    />
    <path
      d="M74.4019 88.9369V99.3352L72.5536 107.43C72.5536 107.43 71.9612 126.963 72.4781 129.338C72.9951 131.713 70.7031 133.943 70.7031 133.943C70.7031 133.943 69.3718 134.093 69.3718 135.131C69.3718 136.169 67.153 139.141 67.153 139.141L67.2262 144.934C67.2262 144.934 68.1891 155.778 66.7092 157.857C65.2292 159.936 67.2262 160.234 67.2262 160.234C65.3779 166.324 56.5026 164.913 55.7016 164.245C54.9006 163.576 55.7016 150.431 55.7016 150.431C55.7016 150.431 57.6852 130.379 59.2384 129.487C60.7916 128.596 59.3138 127.482 59.8308 126.145C60.3478 124.808 59.3138 121.17 59.3138 121.17C59.3138 121.17 58.87 116.861 57.7606 114.782C56.6512 112.703 56.7977 106.984 56.7977 106.984C56.7977 106.984 53.6913 102.824 52.7683 101.191C51.8452 99.558 51.2506 95.3247 51.4725 92.1297C51.6233 89.9707 52.7527 86.8269 53.4694 85.0178C53.8133 84.1511 54.0618 83.5896 54.0618 83.5896L54.2726 83.6453L66.3919 86.8314L74.4019 88.9369Z"
      fill="#444053"
    />
    <path
      opacity="0.1"
      d="M75.5291 39.2515C74.3841 39.5813 73.2903 40.7131 72.3384 42.0878H72.0899C70.6946 42.0888 69.3239 41.7199 68.1161 41.0185C66.9083 40.317 65.9064 39.3078 65.2115 38.0929C64.9211 37.5895 64.6874 37.0552 64.5148 36.4999C65.2004 34.7509 65.7085 33.2313 65.7085 33.2313C65.7085 33.2313 79.0237 38.2489 75.5291 39.2515Z"
      fill="black"
    />
    <path
      d="M80.0222 33.6813C80.0242 34.9004 79.7474 36.1037 79.2133 37.1985C78.6792 38.2933 77.9019 39.2504 76.9414 39.996C75.9809 40.7416 74.8628 41.2559 73.6732 41.4992C72.4835 41.7426 71.2542 41.7084 70.0797 41.3995C68.9053 41.0906 67.8172 40.5151 66.8991 39.7173C65.9811 38.9196 65.2577 37.9209 64.7846 36.7981C64.3115 35.6754 64.1013 34.4586 64.1704 33.2415C64.2394 32.0243 64.5857 30.8394 65.1826 29.7778C65.4231 29.3465 65.7039 28.9391 66.0213 28.5613C66.5446 27.9353 67.1596 27.3929 67.8452 26.9526C69.0034 26.2136 70.3326 25.7889 71.703 25.72C73.0735 25.6512 74.4383 25.9404 75.6642 26.5596C76.89 27.1787 77.9349 28.1066 78.6968 29.2526C79.4587 30.3985 79.9116 31.7234 80.0111 33.0976C80.0155 33.2937 80.0222 33.4875 80.0222 33.6813Z"
      fill="#EFB7B9"
    />
    <path
      opacity="0.1"
      d="M73.3568 52.749L73.3302 52.9941L69.6403 47.2012C69.2542 48.1169 69.039 48.7296 69.039 48.7296C69.039 48.7296 60.2746 42.1034 61.6614 41.6578C62.1273 41.5085 62.7397 40.5059 63.3454 39.2426L63.4209 39.0822C64.0643 41.0072 67.8031 44.855 69.3585 46.3968C69.5382 46.5751 69.6869 46.7221 69.8022 46.8291L70.0397 47.0519L70.1639 47.1766C70.7297 47.7626 73.1172 50.3472 73.3568 52.749Z"
      fill="black"
    />
    <path
      d="M76.1148 72.4049L75.711 85.4545L75.64 87.7784C75.64 87.7784 70.8562 87.3328 66.3919 86.8426C62.7974 86.4482 59.4093 86.0227 58.8878 85.7731C58.2222 85.459 56.7955 85.2161 55.6705 85.0624C54.8007 84.9443 54.1173 84.8819 54.1173 84.8819C54.1173 84.8819 53.8622 84.9577 53.4694 85.029C52.613 85.1849 51.1086 85.3119 50.2322 84.5477C49.1117 83.5696 52.056 80.0159 52.7905 79.1625L52.9525 78.9776L52.6751 76.4042L51.954 69.7312C51.954 69.7312 51.5102 65.8878 50.8446 63.8269C50.6666 63.2409 50.5382 62.6409 50.4607 62.0333C50.2134 60.151 50.3401 58.2381 50.8335 56.4052C51.0443 55.6264 51.1781 54.8286 51.2329 54.0235C51.3438 51.9625 57.612 43.9973 59.1652 43.2731C59.8639 42.946 60.4261 42.383 60.7539 41.6823C60.8621 41.462 60.9433 41.2293 60.9957 40.9894C61.6614 38.0929 63.3455 39.2426 63.3455 39.2426C63.7515 41.5085 70.0375 47.5064 70.0375 47.5064L70.1617 47.6312C70.7852 48.2729 73.5632 51.2852 73.3657 53.8564C73.3262 54.8133 73.4686 55.7691 73.7851 56.6726C75.0637 60.7153 75.7987 64.9115 75.9706 69.1497L76.1148 72.4049Z"
      fill="#DCE6F2"
    />
    <path
      opacity="0.1"
      d="M67.2084 56.9087C67.2084 56.9087 65.6552 60.6964 64.4904 61.3091C63.3255 61.9218 67.7632 62.6014 67.2084 56.9087Z"
      fill="black"
    />
    <path
      opacity="0.1"
      d="M68.3733 63.9828C68.3733 63.9828 64.8232 64.4284 64.8232 65.0968C64.8232 65.7652 68.3733 63.9828 68.3733 63.9828Z"
      fill="black"
    />
    <path
      opacity="0.1"
      d="M72.0899 68.3275C72.0899 68.3275 66.9311 79.3563 65.4889 79.6905C64.0466 80.0247 72.0899 68.3275 72.0899 68.3275Z"
      fill="black"
    />
    <path
      opacity="0.1"
      d="M69.9398 48.0656L65.673 49.9283L60.5231 42.1168C60.6313 41.8965 60.7125 41.6638 60.7649 41.4238C61.4306 38.5274 63.1147 39.6771 63.1147 39.6771C63.5207 41.943 69.8067 47.9409 69.8067 47.9409L69.9398 48.0656Z"
      fill="black"
    />
    <path
      d="M70.1617 47.62L65.8949 49.4826L60.745 41.6711C60.8532 41.4508 60.9344 41.2181 60.9868 40.9782C61.6525 38.0817 63.3366 39.2314 63.3366 39.2314C63.7426 41.4973 70.0286 47.4952 70.0286 47.4952L70.1617 47.62Z"
      fill="#DCE6F2"
    />
    <path
      opacity="0.1"
      d="M75.64 87.7783C75.64 87.7783 70.8562 87.3327 66.3919 86.8425L74.4019 88.948V91.3989C74.0513 91.7175 73.7474 91.8823 73.5499 91.7977C72.6268 91.4078 65.0939 90.1823 65.0939 90.1823C65.0939 90.1823 60.7184 87.9543 55.9967 85.2806C55.8821 85.2169 55.771 85.147 55.6639 85.0712C55.1133 84.6959 54.6389 84.2187 54.266 83.6653C53.394 82.3976 52.968 80.7689 52.7838 79.1713C52.6803 78.2558 52.6417 77.334 52.6685 76.413C52.6913 75.3687 52.7862 74.3272 52.9525 73.296C52.4958 69.3021 52.2736 65.2847 52.2868 61.2645C52.3423 55.026 58.1667 52.798 58.1667 52.798C68.8726 51.851 65.5532 69.2298 65.5532 69.2298C65.5532 69.2298 64.9342 74.1315 64.7655 74.6328C64.5969 75.1341 63.9911 75.9696 64.0732 77.1394C64.1553 78.3091 66.2011 79.7083 66.2011 79.7083C66.2011 79.7083 68.1981 80.6485 69.0212 82.0411C69.6203 83.0682 73.5122 84.4607 75.711 85.4544L75.64 87.7783Z"
      fill="black"
    />
    <path
      opacity="0.1"
      d="M79.2256 28.7351C79.2297 29.1021 79.154 29.4655 79.0038 29.8001C78.89 30.0731 78.7581 30.3381 78.6088 30.5933C78.3753 31.0627 78.0438 31.4761 77.637 31.8053C77.1244 32.1729 76.4765 32.2754 75.8619 32.4247C75.2473 32.574 74.6082 32.8124 74.2577 33.3382C74.0677 33.6762 73.9406 34.0462 73.8827 34.43C73.8239 34.8134 73.6714 35.1762 73.4389 35.4861C73.3178 35.6373 73.1502 35.7439 72.9622 35.7891C72.7742 35.8342 72.5767 35.8154 72.4005 35.7356C72.2149 35.61 72.0742 35.4281 71.9989 35.2165C71.7459 34.6439 71.6816 34.0089 71.5795 33.3917C71.4775 32.7745 71.3332 32.1395 70.956 31.6427C70.5788 31.1458 69.911 30.8183 69.3185 31.0121C69.1203 31.0888 68.9394 31.2049 68.7869 31.3534C68.6344 31.502 68.5134 31.6799 68.431 31.8766C68.2671 32.2704 68.1544 32.6838 68.096 33.1065C67.8208 34.6186 67.4961 36.1218 67.1219 37.6161C67.1105 37.6773 67.0855 37.7352 67.0487 37.7854C66.9897 37.8444 66.9101 37.878 66.8268 37.879C66.3298 37.9458 65.8527 37.596 65.3513 37.6339C65.2996 37.6374 65.2484 37.6456 65.1982 37.6584C64.3874 36.2435 64.0294 34.6125 64.1727 32.9865C64.316 31.3604 64.9536 29.8179 65.9992 28.568L66.0391 28.5568C66.3727 28.4379 66.6758 28.2462 66.9266 27.9954C67.2469 27.6735 67.5436 27.3287 67.8142 26.9638L67.9917 26.741C68.5017 26.124 69.0826 25.5698 69.7224 25.09C69.897 24.9463 70.0973 24.8374 70.3126 24.7691C70.4968 24.7331 70.6856 24.7271 70.8717 24.7513C71.638 24.8437 72.4105 24.8728 73.1815 24.8382C73.7188 24.7534 74.2602 24.6984 74.8035 24.6733C76.208 24.7134 77.4062 25.7094 78.2937 26.8011C78.7708 27.3604 79.1968 28.0043 79.2256 28.7351Z"
      fill="black"
    />
    <path
      d="M64.1464 29.9895C63.838 30.4975 63.2811 30.8429 63.0725 31.3999C62.7663 32.2086 63.2833 33.2157 62.8085 33.9376C62.6509 34.1805 62.3913 34.3609 62.3026 34.6394C62.1517 35.1096 62.5644 35.6109 62.4579 36.0944C62.3514 36.5778 61.7168 36.9856 61.8855 37.4579C61.9851 37.6639 62.1599 37.8235 62.3736 37.9035C62.7098 38.0972 63.0968 38.1835 63.483 38.1508C64.0888 38.0506 64.5392 37.4535 65.1538 37.4089C65.653 37.3733 66.1301 37.7208 66.6271 37.6562C66.7104 37.6533 66.7896 37.6191 66.849 37.5604C66.8867 37.5108 66.9118 37.4526 66.9222 37.3911C67.295 35.8983 67.6204 34.3951 67.8985 32.8815C67.9551 32.4587 68.0671 32.0451 68.2313 31.6516C68.3143 31.4554 68.4356 31.2777 68.588 31.1293C68.7404 30.9808 68.9209 30.8645 69.1188 30.7872C69.7113 30.5955 70.3769 30.9208 70.7563 31.4177C71.1358 31.9145 71.28 32.5495 71.3821 33.1667C71.4841 33.7839 71.5485 34.4189 71.7992 34.9915C71.8754 35.2038 72.0168 35.3864 72.203 35.5128C72.5358 35.7067 72.9841 35.5529 73.2392 35.2633C73.473 34.9534 73.6256 34.5895 73.683 34.205C73.7409 33.8219 73.8679 33.4527 74.058 33.1155C74.4085 32.5896 75.0498 32.3512 75.6622 32.202C76.2746 32.0527 76.9203 31.948 77.4373 31.5803C77.8436 31.2514 78.175 30.8389 78.4091 30.3705C78.7375 29.7957 79.0437 29.1718 79.0171 28.5101C78.9882 27.7882 78.5622 27.1443 78.1073 26.5828C77.2198 25.4911 76.0194 24.4952 74.6149 24.4573C74.0715 24.4801 73.5299 24.5351 72.9929 24.6221C72.2219 24.657 71.4493 24.6272 70.6831 24.533C70.4968 24.5107 70.3082 24.5174 70.124 24.5531C69.9085 24.6192 69.7085 24.7283 69.536 24.8739C68.8956 25.353 68.3139 25.9064 67.8031 26.5227C67.4737 26.9612 67.1164 27.378 66.7336 27.7704C66.4827 28.0216 66.1796 28.214 65.8461 28.3341C65.6242 28.3965 65.4023 28.3519 65.1915 28.421C64.537 28.6282 64.4504 29.486 64.1464 29.9895Z"
      fill="#965D7B"
    />
    <path
      opacity="0.1"
      d="M85.5138 36.0476C83.7387 36.3751 82.2676 34.9336 81.4533 33.882C81.2032 33.5626 80.9756 33.2261 80.7722 32.8749L86.8651 34.029L87.1113 34.0758C87.1113 34.0758 88.2318 35.5485 85.5138 36.0476Z"
      fill="black"
    />
    <g opacity="0.1">
      <path
        opacity="0.1"
        d="M62.4579 35.4571C62.4827 35.1657 62.4387 34.8726 62.3292 34.6016C62.3292 34.6238 62.3093 34.6461 62.3026 34.6684C62.2072 34.967 62.3359 35.2767 62.418 35.5864C62.4356 35.5447 62.449 35.5014 62.4579 35.4571Z"
        fill="black"
      />
      <path
        opacity="0.1"
        d="M62.986 31.8097C62.9632 32.1178 62.9691 32.4273 63.0037 32.7343C63.0265 32.4262 63.0206 32.1167 62.986 31.8097Z"
        fill="black"
      />
      <path
        opacity="0.1"
        d="M78.3958 29.7265C78.1623 30.1959 77.8308 30.6093 77.424 30.9386C76.9114 31.3062 76.2657 31.4087 75.6489 31.558C75.032 31.7073 74.3952 31.9457 74.0447 32.4715C73.855 32.8096 73.7279 33.1795 73.6697 33.5632C73.6119 33.9476 73.4593 34.3114 73.2259 34.6215C72.9707 34.9112 72.5225 35.0672 72.1897 34.8711C72.0035 34.7447 71.8621 34.5621 71.7859 34.3497C71.5352 33.7771 71.4686 33.1443 71.3687 32.5249C71.2689 31.9055 71.1202 31.2728 70.743 30.7759C70.3658 30.2791 69.698 29.9516 69.1055 30.1454C68.9074 30.2224 68.7268 30.3386 68.5743 30.4871C68.4218 30.6356 68.3007 30.8134 68.218 31.0099C68.0537 31.4034 67.9418 31.8169 67.8852 32.2398C67.6086 33.7533 67.2831 35.2565 66.9089 36.7493C66.8985 36.8109 66.8734 36.869 66.8357 36.9187C66.7763 36.9774 66.6971 37.0116 66.6138 37.0145C66.1168 37.0791 65.6397 36.7315 65.1405 36.7672C64.5259 36.8117 64.0754 37.4088 63.4697 37.5069C63.0833 37.5417 62.6957 37.4553 62.3603 37.2596C62.2061 37.1929 62.0677 37.0942 61.9542 36.9699C61.9023 37.0446 61.8679 37.1301 61.8537 37.22C61.8395 37.3099 61.8458 37.4019 61.8721 37.489C61.9699 37.6965 62.1453 37.8567 62.3603 37.9346C62.6957 38.1304 63.0833 38.2168 63.4697 38.182C64.0754 38.0839 64.5259 37.4868 65.1405 37.4423C65.6397 37.4066 66.1168 37.7542 66.6138 37.6896C66.6971 37.6867 66.7763 37.6525 66.8357 37.5938C66.8734 37.5441 66.8985 37.486 66.9089 37.4244C67.2817 35.9391 67.6071 34.4359 67.8852 32.9149C67.9418 32.492 68.0537 32.0785 68.218 31.685C68.3007 31.4885 68.4218 31.3107 68.5743 31.1622C68.7268 31.0137 68.9074 30.8975 69.1055 30.8205C69.698 30.6267 70.3636 30.9542 70.743 31.451C71.1225 31.9479 71.2667 32.5829 71.3687 33.2C71.4708 33.8172 71.5352 34.4522 71.7859 35.0248C71.8621 35.2372 72.0035 35.4198 72.1897 35.5462C72.5225 35.74 72.9707 35.5863 73.2259 35.2966C73.4593 34.9865 73.6119 34.6227 73.6697 34.2383C73.7279 33.8546 73.855 33.4847 74.0447 33.1466C74.3952 32.6208 75.0365 32.3846 75.6489 32.2331C76.2613 32.0816 76.907 31.9813 77.424 31.6137C77.8308 31.2844 78.1623 30.871 78.3958 30.4016C78.7242 29.829 79.0304 29.2052 79.0038 28.5434C78.9994 28.4583 78.9905 28.3736 78.9771 28.2894C78.8701 28.7994 78.6732 29.2861 78.3958 29.7265Z"
        fill="black"
      />
    </g>
    <path
      opacity="0.1"
      d="M79.0126 29.7934C79.5816 30.8093 79.9189 31.9394 80 33.1021C78.023 31.9881 76.1636 30.7648 75.2251 30.3393C73.5898 29.5974 67.4747 29.7088 65.176 29.7778C65.4164 29.3465 65.6973 28.9391 66.0147 28.5613C66.5399 27.9348 67.1572 27.3924 67.8452 26.9527C68.7564 26.372 69.7759 25.984 70.8414 25.8124C71.907 25.6409 72.9961 25.6893 74.0424 25.9548C75.0887 26.2202 76.0701 26.6972 76.9265 27.3564C77.783 28.0157 78.4966 28.8434 79.0237 29.789L79.0126 29.7934Z"
      fill="black"
    />
    <path
      opacity="0.1"
      d="M86.0685 35.1029C85.0012 35.4327 83.2595 34.7955 81.4533 33.882C81.2032 33.5626 80.9756 33.2261 80.7722 32.8749L86.8651 34.029C87.2689 34.3053 87.371 34.6997 86.0685 35.1029Z"
      fill="black"
    />
    <path
      d="M72.5625 22.0688C72.5625 22.0688 66.738 21.7346 65.1005 24.9096L64.8365 27.7236L64.3927 27.6746L64.304 29.5885C64.304 29.5885 73.2059 29.1986 75.2317 30.1165C77.2575 31.0345 83.5523 35.6599 86.0751 34.8801C88.598 34.1003 85.8533 33.3762 85.8533 33.3762C85.8533 33.3762 82.3808 31.899 82.3808 30.7404C82.3808 29.5818 81.5199 23.4614 72.5625 22.0688Z"
      fill="#444053"
    />
    <path
      opacity="0.1"
      d="M61.3285 126.386C61.3285 126.386 65.0451 130.006 66.6537 129.728C66.6537 129.728 62.1051 129.338 61.3285 126.386Z"
      fill="black"
    />
    <path
      opacity="0.1"
      d="M60.5519 128.064C60.5519 128.064 60.8848 129.926 61.7723 129.744C62.6599 129.561 60.5519 128.064 60.5519 128.064Z"
      fill="black"
    />
    <path
      opacity="0.1"
      d="M66.3764 159.194C66.3764 159.194 61.1 163.316 61.9897 163.427C62.8795 163.539 66.3764 159.194 66.3764 159.194Z"
      fill="black"
    />
    <path
      d="M73.4345 77.3867L90.5195 74.595V90.8374L74.2865 89.9841L73.4345 77.3867Z"
      fill="#AF8CF8"
    />
    <path
      opacity="0.05"
      d="M73.4345 77.3867L90.5195 74.595V90.8374L74.2865 89.9841L73.4345 77.3867Z"
      fill="black"
    />
    <path
      d="M90.5195 74.595L111.008 76.1346L109.874 90.2693L90.5195 90.8374V74.595Z"
      fill="#AF8CF8"
    />
    <path
      opacity="0.1"
      d="M90.5195 74.595L111.008 76.1346L109.874 90.2693L90.5195 90.8374V74.595Z"
      fill="black"
    />
    <path
      d="M96.8187 69.6376L90.5195 74.595L111.008 76.1345L114.356 71.0613L96.8187 69.6376Z"
      fill="#AF8CF8"
    />
    <path
      d="M67.2484 71.9725L82.6293 70.092L90.5195 74.5949L73.4345 77.3867L67.2484 71.9725Z"
      fill="#AF8CF8"
    />
    <path
      d="M94.2649 78.8127V101.02L86.2615 100.195L82.7802 99.8387L81.7196 99.7273L78.2405 99.3686L73.4345 98.874V77.3867L90.5173 78.5542L94.2649 78.8127Z"
      fill="#AF8CF8"
    />
    <path
      d="M111.008 76.1345V97.7911L104.594 99.0277L101.474 99.6293L94.2649 101.02V78.8126L111.008 76.1345Z"
      fill="#AF8CF8"
    />
    <path
      opacity="0.05"
      d="M111.008 76.1345V97.7911L104.594 99.0277L101.474 99.6293L94.2649 101.02V78.8126L111.008 76.1345Z"
      fill="black"
    />
    <path
      d="M67.2484 82.0612L73.4345 77.3867L94.2649 78.8127L91.1984 83.9996L67.2484 82.0612Z"
      fill="#AF8CF8"
    />
    <path
      opacity="0.1"
      d="M67.2484 82.0612L73.4345 77.3867L94.2649 78.8127L91.1984 83.9996L67.2484 82.0612Z"
      fill="white"
    />
    <path
      d="M111.008 76.1345L94.2649 78.8126L99.7143 83.7143L117.649 80.6931L111.008 76.1345Z"
      fill="#AF8CF8"
    />
    <path
      opacity="0.1"
      d="M111.008 76.1345L94.2649 78.8126L99.7143 83.7143L117.649 80.6931L111.008 76.1345Z"
      fill="white"
    />
    <path
      opacity="0.1"
      d="M104.594 99.0278L101.474 99.6293V95.0017L104.396 94.262L104.594 99.0278Z"
      fill="white"
    />
    <path
      opacity="0.1"
      d="M86.2616 97.1339V100.195L82.7802 99.8387V97.1339H86.2616Z"
      fill="white"
    />
    <path
      opacity="0.1"
      d="M81.7196 98.0986V99.7273L78.2405 99.3686V98.0986H81.7196Z"
      fill="white"
    />
    <path
      opacity="0.1"
      d="M92.1703 95.5096C89.785 98.5732 81.9082 96.4565 81.9082 96.4565L76.0549 90.3249L75.2606 89.4939L76.8137 86.5974C76.8137 86.5974 77.2575 86.7445 77.9986 87.0029C81.9215 88.3798 94.1783 92.9317 92.1703 95.5096Z"
      fill="black"
    />
    <path
      d="M91.9484 95.064C89.5632 98.1276 81.6863 96.0109 81.6863 96.0109L75.833 89.8794L75.0387 89.0483L76.5919 86.1519C76.5919 86.1519 77.0356 86.2989 77.7767 86.5574C81.6996 87.9343 93.9565 92.4862 91.9484 95.064Z"
      fill="#EFB7B9"
    />
    <path
      opacity="0.1"
      d="M77.7679 86.5574C77.4439 87.4931 76.6207 88.879 75.8242 89.8794L75.0298 89.0483L76.583 86.1519C76.583 86.1519 77.029 86.2989 77.7679 86.5574Z"
      fill="black"
    />
    <path
      d="M58.3886 51.9068C58.3886 51.9068 52.5641 54.1349 52.5087 60.3734C52.4954 64.3935 52.7177 68.4109 53.1743 72.4049C53.1743 72.4049 51.5102 81.7069 56.2252 84.3806C60.9402 87.0543 65.3224 89.2823 65.3224 89.2823C65.3224 89.2823 72.8554 90.5077 73.7806 90.8976C74.7059 91.2875 77.921 86.2744 77.4217 85.4389C76.9225 84.6034 70.0641 82.5425 69.2498 81.1499C68.4354 79.7574 66.4296 78.8194 66.4296 78.8194C66.4296 78.8194 64.3839 77.418 64.3018 76.2482C64.2197 75.0785 64.8232 74.243 64.994 73.7417C65.1649 73.2404 65.7839 68.3387 65.7839 68.3387C65.7839 68.3387 69.0944 50.9488 58.3886 51.9068Z"
      fill="#DCE6F2"
    />
    <path
      opacity="0.1"
      d="M61.0512 72.5608C61.0512 72.5608 53.1743 73.452 53.7845 76.2371C53.7845 76.2371 56.7777 73.4275 61.0512 72.5608Z"
      fill="black"
    />
    <path
      opacity="0.1"
      d="M61.0511 73.6748C61.0511 73.6748 56.5802 76.9612 57.4012 77.184C58.2222 77.4068 61.0511 73.6748 61.0511 73.6748Z"
      fill="black"
    />
    <path
      opacity="0.1"
      d="M63.0481 75.0116C63.0481 75.0116 61.7723 77.3154 62.4934 77.1951C63.2145 77.0748 63.0481 75.0116 63.0481 75.0116Z"
      fill="black"
    />
    <path
      d="M145.061 25.041C145.061 25.041 136.629 24.5308 137.614 30.4707C137.614 30.4707 137.417 31.5202 138.364 31.997C138.364 31.997 138.38 31.5514 139.23 31.7051C139.532 31.7562 139.84 31.7712 140.146 31.7496C140.561 31.7219 140.955 31.5583 141.269 31.284C141.269 31.284 143.641 30.3014 144.564 26.4068C144.564 26.4068 145.247 25.5557 145.229 25.3373L143.805 25.95C143.805 25.95 144.291 26.9816 143.907 27.8394C143.907 27.8394 143.862 25.9879 143.587 26.0302C143.532 26.0302 142.848 26.389 142.848 26.389C142.848 26.389 143.685 28.1848 143.053 29.4926C143.053 29.4926 143.292 27.278 142.587 26.5182L141.584 27.1064C141.584 27.1064 142.562 28.9624 141.899 30.4774C141.899 30.4774 142.07 28.1536 141.373 27.249L140.463 27.9597C140.463 27.9597 141.384 29.7912 140.823 31.0478C140.823 31.0478 140.749 28.343 140.266 28.138C140.266 28.138 139.471 28.842 139.352 29.1317C139.352 29.1317 139.979 30.4685 139.589 31.1614C139.589 31.1614 139.349 29.359 139.145 29.35C139.145 29.35 138.353 30.5443 138.271 31.3553C138.309 30.5992 138.544 29.8664 138.952 29.2297C138.496 29.3165 138.074 29.5357 137.741 29.8603C137.741 29.8603 137.863 29.0158 139.147 28.9423C139.147 28.9423 139.813 28.0355 139.977 27.9798C139.977 27.9798 138.699 27.8728 137.925 28.2182C137.925 28.2182 138.606 27.4228 140.212 27.7726L141.1 27.0373C141.1 27.0373 139.418 26.8145 138.704 27.0618C138.704 27.0618 139.525 26.3578 141.342 26.8702L142.318 26.2842C142.318 26.2842 140.885 25.9723 140.031 26.086C140.031 26.086 140.931 25.598 142.604 26.1261L143.303 25.8119C143.303 25.8119 142.252 25.6047 141.945 25.5713C141.639 25.5379 141.621 25.4532 141.621 25.4532C142.287 25.342 142.97 25.4191 143.594 25.676C143.594 25.676 145.092 25.1346 145.061 25.041Z"
      fill="#AF8CF8"
    />
    <path
      opacity="0.1"
      d="M170.679 54.7497C170.679 54.7497 162.248 54.2395 163.233 60.1795C163.233 60.1795 163.035 61.2289 163.983 61.7057C163.983 61.7057 163.998 61.2601 164.85 61.4138C165.153 61.465 165.461 61.4799 165.767 61.4584C166.177 61.4285 166.566 61.2659 166.876 60.9949C166.876 60.9949 169.25 60.0101 170.173 56.1155C170.173 56.1155 170.854 55.2666 170.828 55.0483L169.403 55.6588C169.403 55.6588 169.889 56.6904 169.508 57.5482C169.508 57.5482 169.461 55.6967 169.188 55.739C169.133 55.739 168.447 56.0977 168.447 56.0977C168.447 56.0977 169.286 57.8957 168.653 59.2014C168.653 59.2014 168.893 56.9867 168.185 56.2269L167.193 56.8084C167.193 56.8084 168.172 58.6644 167.508 60.1795C167.508 60.1795 167.679 57.8556 166.983 56.951L166.075 57.664C166.075 57.664 166.994 59.4932 166.435 60.7499C166.435 60.7499 166.361 58.045 165.878 57.84C165.878 57.84 165.083 58.5441 164.961 58.8337C164.961 58.8337 165.591 60.1706 165.201 60.8635C165.201 60.8635 164.961 59.061 164.757 59.0521C164.757 59.0521 163.965 60.2463 163.883 61.0573C163.923 60.3012 164.158 59.5685 164.566 58.9318C164.109 59.0187 163.687 59.2379 163.353 59.5623C163.353 59.5623 163.477 58.7179 164.762 58.6444C164.762 58.6444 165.416 57.7375 165.591 57.6818C165.591 57.6818 164.313 57.5749 163.539 57.9202C163.539 57.9202 164.22 57.1248 165.824 57.4858L166.712 56.7505C166.712 56.7505 165.028 56.5277 164.316 56.775C164.316 56.775 165.137 56.071 166.954 56.5834L167.93 55.9974C167.93 55.9974 166.494 55.6877 165.64 55.7991C165.64 55.7991 166.543 55.3112 168.216 55.8392L168.915 55.5251C168.915 55.5251 167.864 55.3179 167.555 55.2845C167.247 55.251 167.231 55.1664 167.231 55.1664C167.897 55.0551 168.581 55.1323 169.206 55.3892C169.206 55.3892 170.706 54.8433 170.679 54.7497Z"
      fill="#AF8CF8"
    />
    <path
      opacity="0.1"
      d="M119.458 49.476C119.458 49.476 121.399 41.2122 115.399 41.1832C115.399 41.1832 114.403 40.8089 113.775 41.6645C113.775 41.6645 114.203 41.7558 113.913 42.5713C113.812 42.8596 113.745 43.1587 113.713 43.4625C113.67 43.8766 113.763 44.2936 113.977 44.65C113.977 44.65 114.538 47.1677 118.193 48.7452C118.193 48.7452 118.912 49.5651 119.129 49.574L118.774 48.0612C118.774 48.0612 117.678 48.3664 116.901 47.8384C116.901 47.8384 118.728 48.108 118.73 47.8384C118.73 47.7827 118.508 47.0452 118.508 47.0452C118.508 47.0452 116.602 47.5666 115.426 46.7177C115.426 46.7177 117.558 47.3326 118.426 46.7645L118.026 45.6683C118.026 45.6683 116.029 46.3211 114.663 45.4054C114.663 45.4054 116.915 45.9713 117.922 45.4365L117.378 44.4161C117.378 44.4161 115.426 45.0132 114.288 44.2445C114.288 44.2445 116.95 44.6322 117.239 44.1911C117.239 44.1911 116.684 43.2842 116.42 43.1149C116.42 43.1149 115.009 43.5115 114.387 43.0057C114.387 43.0057 116.196 43.0748 116.238 42.8832C116.238 42.8832 115.202 41.8962 114.412 41.6734C115.148 41.8417 115.828 42.1995 116.384 42.7116C116.376 42.2447 116.233 41.7902 115.972 41.4038C115.972 41.4038 116.779 41.6711 116.637 42.9634C116.637 42.9634 117.414 43.7655 117.438 43.9482C117.438 43.9482 117.76 42.7027 117.554 41.8761C117.554 41.8761 118.219 42.6871 117.591 44.2133L118.16 45.2271C118.16 45.2271 118.674 43.6006 118.543 42.852C118.543 42.852 119.096 43.7833 118.282 45.4945L118.692 46.5617C118.692 46.5617 119.24 45.1937 119.276 44.3337C119.276 44.3337 119.602 45.3095 118.796 46.8759L118.987 47.62C118.987 47.62 119.369 46.6152 119.453 46.3166C119.537 46.0181 119.624 46.0158 119.624 46.0158C119.621 46.6937 119.429 47.3572 119.071 47.932C119.071 47.932 119.362 49.4871 119.458 49.476Z"
      fill="#AF8CF8"
    />
    <path
      opacity="0.1"
      d="M100.992 52.2922C100.992 52.2922 94.2205 47.2055 91.7997 52.7155C91.7997 52.7155 91.0609 53.4842 91.5912 54.4044C91.5912 54.4044 91.8441 54.0457 92.4787 54.6405C92.7035 54.8505 92.9522 55.033 93.2198 55.1842C93.5822 55.3868 94.0006 55.4651 94.4113 55.407C94.4113 55.407 96.9319 55.8949 99.8341 53.1522C99.8341 53.1522 100.87 52.818 100.968 52.6219L99.4392 52.3523C99.4392 52.3523 99.2794 53.482 98.4917 53.9877C98.4917 53.9877 99.4658 52.4147 99.2129 52.3011C99.1618 52.2766 98.3986 52.1897 98.3986 52.1897C98.3986 52.1897 98.1145 54.1548 96.872 54.8968C96.872 54.8968 98.2854 53.1789 98.1101 52.154L96.9497 52.0917C96.9497 52.0917 96.7522 54.1838 95.3676 55.0839C95.3676 55.0839 96.781 53.2369 96.6989 52.0961L95.5496 52.1897C95.5496 52.1897 95.3166 54.2239 94.1606 54.9636C94.1606 54.9636 95.5784 52.6643 95.2878 52.2276C95.2878 52.2276 94.2383 52.3769 93.9786 52.5506C93.9786 52.5506 93.7767 54.0078 93.0667 54.3776C93.0667 54.3776 93.8544 52.74 93.6946 52.6264C93.6946 52.6264 92.3789 53.1856 91.8619 53.8229C92.3091 53.2127 92.9072 52.7304 93.597 52.4236C93.1678 52.2445 92.6959 52.195 92.2391 52.281C92.2391 52.281 92.8027 51.6438 93.9165 52.2922C93.9165 52.2922 94.9594 51.8978 95.1369 51.9468C95.1369 51.9468 94.1273 51.1514 93.2908 51.0133C93.2908 51.0133 94.2982 50.7236 95.4409 51.9045L96.5924 51.7864C96.5924 51.7864 95.3122 50.6724 94.5777 50.4852C94.5777 50.4852 95.6494 50.3493 96.8853 51.7797L98.0214 51.831C98.0214 51.831 96.994 50.7793 96.2197 50.4006C96.2197 50.4006 97.2381 50.4897 98.3475 51.8555L99.1041 51.978C99.1041 51.978 98.3386 51.2249 98.099 51.0289C97.8594 50.8328 97.8927 50.7504 97.8927 50.7504C98.5099 51.0249 99.0392 51.4661 99.4214 52.0248C99.4214 52.0248 100.964 52.3835 100.992 52.2922Z"
      fill="#AF8CF8"
    />
    <path
      opacity="0.1"
      d="M123.538 5.03316C123.538 5.03316 116.766 -0.0556974 114.345 5.45649C114.345 5.45649 113.606 6.22516 114.137 7.14535C114.137 7.14535 114.39 6.78663 115.024 7.38152C115.25 7.59042 115.5 7.77212 115.768 7.92294C116.13 8.12572 116.548 8.20396 116.959 8.14574C116.959 8.14574 119.48 8.63368 122.382 5.88873C122.382 5.88873 123.418 5.55675 123.514 5.35846L121.985 5.09332C121.985 5.09332 121.827 6.22294 121.037 6.7287C121.037 6.7287 122.014 5.1557 121.761 5.04207C121.71 5.01756 120.946 4.93067 120.946 4.93067C120.946 4.93067 120.653 6.90026 119.411 7.63775C119.411 7.63775 120.822 5.91992 120.649 4.89502L119.489 4.83264C119.489 4.83264 119.289 6.92477 117.907 7.82267C117.907 7.82267 119.32 5.97562 119.238 4.83486L118.091 4.92844C118.091 4.92844 117.856 6.96488 116.7 7.70459C116.7 7.70459 118.12 5.40524 117.829 4.96855C117.829 4.96855 116.779 5.11783 116.52 5.29161C116.52 5.29161 116.318 6.74876 115.608 7.11861C115.608 7.11861 116.396 5.481 116.236 5.36514C116.236 5.36514 114.92 5.92661 114.403 6.56383C114.85 5.95305 115.448 5.47059 116.138 5.16461C115.709 4.98416 115.236 4.93457 114.778 5.02202C114.778 5.02202 115.344 4.3848 116.458 5.03316C116.458 5.03316 117.501 4.63657 117.678 4.68781C117.678 4.68781 116.668 3.8924 115.832 3.75203C115.832 3.75203 116.837 3.46462 117.98 4.64325L119.131 4.52516C119.131 4.52516 117.853 3.41114 117.117 3.22176C117.117 3.22176 118.188 3.08808 119.426 4.51848L120.563 4.5675C120.563 4.5675 119.535 3.51586 118.759 3.13932C118.759 3.13932 119.779 3.22844 120.889 4.59424L121.643 4.71678C121.643 4.71678 120.875 3.97261 120.636 3.781C120.396 3.58939 120.429 3.50472 120.429 3.50472C121.047 3.7789 121.576 4.22017 121.958 4.77916C121.958 4.77916 123.5 5.11783 123.538 5.03316Z"
      fill="#AF8CF8"
    />
    <path
      opacity="0.1"
      d="M149.414 11.4789C149.414 11.4789 146.707 3.43344 141.601 6.59504C141.601 6.59504 140.559 6.81784 140.477 7.86725C140.477 7.86725 140.887 7.71575 141.069 8.5624C141.137 8.86357 141.239 9.1559 141.373 9.43357C141.556 9.80726 141.855 10.1113 142.225 10.3003C142.225 10.3003 144.027 12.1384 147.967 11.5302C147.967 11.5302 149.008 11.8465 149.199 11.7374L148.089 10.6434C148.089 10.6434 147.322 11.4834 146.385 11.4499C146.385 11.4499 148.078 10.7102 147.938 10.4718C147.91 10.425 147.33 9.91928 147.33 9.91928C147.33 9.91928 145.986 11.3742 144.544 11.2784C144.544 11.2784 146.676 10.6679 147.111 9.71876L146.192 9.00801C146.192 9.00801 144.848 10.6167 143.199 10.5676C143.199 10.5676 145.418 9.85244 145.979 8.86319L144.981 8.28613C144.981 8.28613 143.649 9.83016 142.269 9.78114C142.269 9.78114 144.737 8.69609 144.743 8.17027C144.743 8.17027 143.796 7.69569 143.483 7.69124C143.483 7.69124 142.493 8.7763 141.708 8.67826C141.708 8.67826 143.279 7.7759 143.212 7.59098C143.212 7.59098 141.814 7.30356 141.027 7.53527C141.739 7.28619 142.504 7.22858 143.246 7.36817C142.992 6.97581 142.631 6.6661 142.205 6.47695C142.205 6.47695 143.03 6.2742 143.583 7.4417C143.583 7.4417 144.666 7.71129 144.781 7.85166C144.781 7.85166 144.399 6.624 143.789 6.03134C143.789 6.03134 144.781 6.36778 145.052 7.99648L146.068 8.55349C146.068 8.55349 145.649 6.90251 145.143 6.32545C145.143 6.32545 146.103 6.82453 146.312 8.70723L147.222 9.39569C147.222 9.39569 146.969 7.94301 146.543 7.18993C146.543 7.18993 147.333 7.84497 147.475 9.6029L148.027 10.1332C148.027 10.1332 147.823 9.07708 147.739 8.77852C147.654 8.47997 147.723 8.45991 147.723 8.45991C148.076 9.0379 148.263 9.70261 148.262 10.3805C148.262 10.3805 149.336 11.5368 149.414 11.4789Z"
      fill="#AF8CF8"
    />
    <path
      opacity="0.1"
      d="M131.748 11.8754C131.748 11.8754 123.338 10.9352 124.033 16.9264C124.033 16.9264 123.782 17.9647 124.698 18.486C124.698 18.486 124.736 18.0404 125.586 18.241C125.886 18.3058 126.193 18.3365 126.5 18.3323C126.915 18.3248 127.316 18.1816 127.643 17.9246C127.643 17.9246 130.064 17.0623 131.193 13.2189C131.193 13.2189 131.916 12.4057 131.901 12.1851L130.447 12.7243C130.447 12.7243 130.891 13.7782 130.447 14.6159C130.447 14.6159 130.494 12.7644 130.226 12.7934C130.17 12.7934 129.469 13.1142 129.469 13.1142C129.469 13.1142 130.214 14.9524 129.518 16.2335C129.518 16.2335 129.868 14.0322 129.2 13.239L128.169 13.7737C128.169 13.7737 129.056 15.6787 128.313 17.1581C128.313 17.1581 128.601 14.8454 127.951 13.9074L127.008 14.5758C127.008 14.5758 127.834 16.4496 127.21 17.6773C127.21 17.6773 127.274 14.9724 126.802 14.7429C126.802 14.7429 125.972 15.4113 125.837 15.6876C125.837 15.6876 126.398 17.0467 125.974 17.7263C125.974 17.7263 125.826 15.9149 125.63 15.8971C125.63 15.8971 124.778 17.049 124.654 17.8622C124.731 17.1082 125.003 16.3877 125.444 15.7723C124.983 15.8362 124.552 16.0336 124.201 16.3404C124.201 16.3404 124.366 15.5049 125.653 15.496C125.653 15.496 126.351 14.6248 126.54 14.5781C126.54 14.5781 125.269 14.4065 124.477 14.7117C124.477 14.7117 125.198 13.9497 126.782 14.3931L127.716 13.7047C127.716 13.7047 126.027 13.3615 125.313 13.5843C125.313 13.5843 126.169 12.9159 127.958 13.5286L128.963 12.9917C128.963 12.9917 127.545 12.6085 126.686 12.6775C126.686 12.6775 127.612 12.2319 129.256 12.8491L129.97 12.5706C129.97 12.5706 128.93 12.3099 128.624 12.2609C128.317 12.2119 128.306 12.1272 128.306 12.1272C128.977 12.0499 129.656 12.161 130.268 12.448C130.268 12.448 131.763 11.969 131.748 11.8754Z"
      fill="#AF8CF8"
    />
    <path
      opacity="0.1"
      d="M205.324 77.4179C205.324 77.4179 196.919 76.4777 197.614 82.4622C197.614 82.4622 197.363 83.5004 198.279 84.0218C198.279 84.0218 198.317 83.5762 199.167 83.7745C199.467 83.8416 199.774 83.8722 200.081 83.8658C200.496 83.8595 200.898 83.7162 201.224 83.4581C201.224 83.4581 203.644 82.5959 204.763 78.7547C204.763 78.7547 205.486 77.9392 205.471 77.7209L204.017 78.2579C204.017 78.2579 204.461 79.3139 204.017 80.1517C204.017 80.1517 204.064 78.298 203.795 78.3292C203.74 78.3292 203.039 78.6478 203.039 78.6478C203.039 78.6478 203.784 80.4859 203.088 81.767C203.088 81.767 203.438 79.5679 202.77 78.7725L201.738 79.3095C201.738 79.3095 202.626 81.2145 201.885 82.6939C201.885 82.6939 202.171 80.3812 201.521 79.4409L200.578 80.1094C200.578 80.1094 201.403 81.9831 200.78 83.2086C200.78 83.2086 200.844 80.5037 200.372 80.2765C200.372 80.2765 199.544 80.9449 199.406 81.2212C199.406 81.2212 199.97 82.5803 199.544 83.2598C199.544 83.2598 199.395 81.4484 199.2 81.4306C199.2 81.4306 198.348 82.5825 198.224 83.3957C198.301 82.6418 198.573 81.9212 199.014 81.3058C198.553 81.3686 198.121 81.5662 197.771 81.874C197.771 81.874 197.935 81.0362 199.222 81.0273C199.222 81.0273 199.923 80.1561 200.11 80.1116C200.11 80.1116 198.838 79.9378 198.046 80.243C198.046 80.243 198.767 79.4833 200.354 79.9267L201.286 79.2382C201.286 79.2382 199.617 78.9218 198.892 79.1402C198.892 79.1402 199.748 78.4717 201.537 79.0822L202.542 78.5475C202.542 78.5475 201.124 78.1643 200.265 78.2333C200.265 78.2333 201.19 77.7877 202.835 78.4049L203.549 78.1242C203.549 78.1242 202.508 77.8635 202.202 77.8167C201.896 77.7699 201.885 77.683 201.885 77.683C202.556 77.6043 203.235 77.7147 203.846 78.0016C203.846 78.0016 205.346 77.5137 205.324 77.4179Z"
      fill="#AF8CF8"
    />
    <path
      opacity="0.1"
      d="M218.173 85.3008C218.173 85.3008 209.768 84.3628 210.463 90.3451C210.463 90.3451 210.214 91.3833 211.129 91.9047C211.129 91.9047 211.166 91.4591 212.016 91.6596C212.316 91.7251 212.622 91.755 212.928 91.7487C213.341 91.7403 213.74 91.598 214.066 91.3432C214.066 91.3432 216.485 90.481 217.603 86.6376C217.603 86.6376 218.329 85.8244 218.311 85.6038L216.858 86.1407C216.858 86.1407 217.301 87.1968 216.858 88.0346C216.858 88.0346 216.904 86.1831 216.636 86.212C216.58 86.212 215.879 86.5307 215.879 86.5307C215.879 86.5307 216.625 88.3688 215.928 89.6499C215.928 89.6499 216.278 87.4508 215.611 86.6577L214.579 87.1924C214.579 87.1924 215.466 89.0974 214.725 90.5768C214.725 90.5768 215.011 88.2641 214.361 87.3261L213.418 87.9945C213.418 87.9945 214.244 89.8683 213.623 91.0959C213.623 91.0959 213.685 88.3888 213.212 88.1616C213.212 88.1616 212.384 88.83 212.247 89.1063C212.247 89.1063 212.81 90.4654 212.384 91.1449C212.384 91.1449 212.236 89.3335 212.04 89.3157C212.04 89.3157 211.188 90.4676 211.066 91.2809C211.143 90.5272 211.415 89.8068 211.854 89.1909C211.394 89.2548 210.962 89.4523 210.612 89.7591C210.612 89.7591 210.778 88.9214 212.065 88.9147C212.065 88.9147 212.764 88.0435 212.952 87.9967C212.952 87.9967 211.681 87.8251 210.889 88.1304C210.889 88.1304 211.61 87.3684 213.196 87.8118L214.128 87.1233C214.128 87.1233 212.46 86.8069 211.734 87.0253C211.734 87.0253 212.591 86.3569 214.379 86.9696L215.384 86.4326C215.384 86.4326 213.966 86.0494 213.108 86.1185C213.108 86.1185 214.033 85.6729 215.677 86.29L216.392 86.0115C216.392 86.0115 215.351 85.7508 215.047 85.7018C214.743 85.6528 214.727 85.5681 214.727 85.5681C215.398 85.4909 216.077 85.6019 216.689 85.889C216.689 85.889 218.196 85.3966 218.173 85.3008Z"
      fill="#AF8CF8"
    />
    <path
      opacity="0.1"
      d="M189.646 18.9028C189.646 18.9028 182.874 13.8161 180.453 19.3261C180.453 19.3261 179.714 20.0948 180.245 21.015C180.245 21.015 180.498 20.6562 181.132 21.2511C181.357 21.4611 181.606 21.6436 181.873 21.7948C182.236 21.9973 182.654 22.0755 183.065 22.0176C183.065 22.0176 185.585 22.5055 188.49 19.7628C188.49 19.7628 189.524 19.4286 189.621 19.2325L188.097 18.9562C188.097 18.9562 187.937 20.0859 187.15 20.5916C187.15 20.5916 188.124 19.0186 187.871 18.905C187.82 18.8805 187.059 18.7936 187.059 18.7936C187.059 18.7936 186.772 20.7587 185.53 21.5007C185.53 21.5007 186.943 19.7829 186.768 18.758L185.608 18.6956C185.608 18.6956 185.41 20.7877 184.026 21.6878C184.026 21.6878 185.441 19.8408 185.357 18.7L184.207 18.7936C184.207 18.7936 183.986 20.8278 182.818 21.5675C182.818 21.5675 184.239 19.2682 183.946 18.8315C183.946 18.8315 182.896 18.9808 182.637 19.1545C182.637 19.1545 182.437 20.6117 181.727 20.9815C181.727 20.9815 182.512 19.3439 182.353 19.2303C182.353 19.2303 181.037 19.7895 180.52 20.4268C180.967 19.8166 181.565 19.3343 182.255 19.0275C181.826 18.8484 181.354 18.7989 180.897 18.885C180.897 18.885 181.463 18.2477 182.577 18.8961C182.577 18.8961 183.617 18.5017 183.795 18.5507C183.795 18.5507 182.785 17.7553 181.949 17.6172C181.949 17.6172 182.956 17.3275 184.099 18.5084L185.25 18.3903C185.25 18.3903 183.972 17.2763 183.236 17.0891C183.236 17.0891 184.307 16.9532 185.543 18.3836L186.681 18.4349C186.681 18.4349 185.652 17.3833 184.878 17.0045C184.878 17.0045 185.898 17.0936 187.005 18.4594L187.762 18.5819C187.762 18.5819 186.997 17.8289 186.757 17.6328C186.517 17.4367 186.553 17.3721 186.553 17.3721C187.169 17.647 187.698 18.0882 188.079 18.6466C188.079 18.6466 189.617 18.9941 189.646 18.9028Z"
      fill="#AF8CF8"
    />
    <path
      opacity="0.1"
      d="M194.878 55.6254C194.878 55.6254 192.544 47.464 187.294 50.3939C187.294 50.3939 186.242 50.5566 186.111 51.6127C186.111 51.6127 186.528 51.4812 186.673 52.3345C186.726 52.6411 186.815 52.9403 186.939 53.2258C187.103 53.6097 187.389 53.929 187.751 54.1348C187.751 54.1348 189.468 56.0509 193.431 55.6231C193.431 55.6231 194.456 55.9841 194.652 55.886L193.602 54.7408C193.602 54.7408 192.797 55.5474 191.865 55.4716C191.865 55.4716 193.586 54.8032 193.453 54.5648C193.427 54.5158 192.872 53.9833 192.872 53.9833C192.872 53.9833 191.465 55.378 190.027 55.2154C190.027 55.2154 192.186 54.7029 192.661 53.7805L191.774 53.0275C191.774 53.0275 190.358 54.5737 188.714 54.4534C188.714 54.4534 190.95 53.8362 191.567 52.876L190.595 52.2543C190.595 52.2543 189.187 53.736 187.82 53.6246C187.82 53.6246 190.334 52.6509 190.365 52.1273C190.365 52.1273 189.437 51.6104 189.124 51.5926C189.124 51.5926 188.088 52.6309 187.301 52.4972C187.301 52.4972 188.911 51.6661 188.854 51.479C188.854 51.479 187.469 51.1292 186.673 51.323C187.394 51.1082 188.159 51.0859 188.891 51.2584C188.657 50.8552 188.31 50.5299 187.893 50.3226C187.893 50.3226 188.727 50.1555 189.224 51.3475C189.224 51.3475 190.292 51.6639 190.402 51.811C190.402 51.811 190.076 50.5655 189.493 49.9483C189.493 49.9483 190.469 50.3271 190.666 51.9669L191.656 52.5707C191.656 52.5707 191.31 50.8997 190.831 50.3115C190.831 50.3115 191.767 50.8529 191.894 52.7423L192.781 53.4708C192.781 53.4708 192.592 52.0092 192.202 51.2428C192.202 51.2428 192.963 51.9335 193.025 53.6936L193.553 54.2507C193.553 54.2507 193.398 53.1857 193.331 52.8826C193.265 52.5796 193.331 52.5373 193.331 52.5373C193.66 53.1299 193.817 53.8027 193.786 54.4801C193.786 54.4801 194.798 55.6788 194.878 55.6254Z"
      fill="#AF8CF8"
    />
    <path
      opacity="0.1"
      d="M142.864 74.0157C142.864 74.0157 138.331 66.8459 134.122 71.1371C134.122 71.1371 133.159 71.5827 133.327 72.641C133.327 72.641 133.694 72.3959 134.071 73.1757C134.206 73.4521 134.375 73.7109 134.572 73.9466C134.837 74.2683 135.199 74.4938 135.604 74.5883C135.604 74.5883 137.79 75.9429 141.473 74.41C141.473 74.41 142.558 74.468 142.718 74.3187L141.386 73.5166C141.386 73.5166 140.838 74.5192 139.922 74.7086C139.922 74.7086 141.391 73.5946 141.193 73.3896C141.155 73.3495 140.472 72.9975 140.472 72.9975C140.472 72.9975 139.511 74.7309 138.087 74.9827C138.087 74.9827 140.015 73.8798 140.215 72.8593L139.152 72.3892C139.152 72.3892 138.227 74.2719 136.616 74.6173C136.616 74.6173 138.591 73.3941 138.912 72.2979L137.803 71.977C137.803 71.977 136.866 73.7973 135.524 74.0758C135.524 74.0758 137.663 72.4316 137.545 71.9191C137.545 71.9191 136.511 71.6852 136.214 71.7565C136.214 71.7565 135.511 73.0465 134.716 73.1401C134.716 73.1401 136.03 71.8879 135.921 71.723C135.921 71.723 134.495 71.7787 133.785 72.1909C134.418 71.7789 135.148 71.5408 135.901 71.5002C135.564 71.1796 135.14 70.965 134.683 70.8831C134.683 70.8831 135.435 70.4887 136.236 71.4913C136.236 71.4913 137.346 71.4913 137.499 71.6027C137.499 71.6027 136.833 70.4887 136.103 70.0721C136.103 70.0721 137.146 70.1612 137.794 71.6785L138.914 71.977C138.914 71.977 138.113 70.4731 137.49 70.0431C137.49 70.0431 138.539 70.2971 139.19 72.0773L140.237 72.5229C140.237 72.5229 139.647 71.1749 139.054 70.5444C139.054 70.5444 139.977 70.99 140.53 72.6633L141.195 73.0487C141.195 73.0487 140.752 72.0706 140.594 71.801C140.437 71.5314 140.499 71.469 140.499 71.469C140.979 71.9453 141.318 72.5462 141.477 73.2047C141.477 73.2047 142.804 74.0914 142.864 74.0157Z"
      fill="#AF8CF8"
    />
    <path
      d="M172.656 37.3822C172.656 37.3822 168.345 30.0765 164.003 34.234C164.003 34.234 163.027 34.6573 163.164 35.7134C163.164 35.7134 163.535 35.4772 163.89 36.2682C164.017 36.5494 164.177 36.8142 164.367 37.0569C164.621 37.3855 164.977 37.6205 165.378 37.7253C165.378 37.7253 167.52 39.1468 171.249 37.7253C171.249 37.7253 172.332 37.8167 172.496 37.6719L171.194 36.8297C171.194 36.8297 170.617 37.8122 169.694 37.9749C169.694 37.9749 171.196 36.8987 171.008 36.696C170.968 36.6537 170.298 36.2793 170.298 36.2793C170.298 36.2793 169.284 37.9838 167.857 38.191C167.857 38.191 169.818 37.1483 170.047 36.1367L169 35.6421C169 35.6421 168.017 37.4981 166.395 37.7944C166.395 37.7944 168.407 36.6336 168.762 35.5485L167.666 35.1921C167.666 35.1921 166.672 36.9745 165.323 37.2196C165.323 37.2196 167.511 35.6421 167.409 35.1274C167.409 35.1274 166.384 34.8601 166.077 34.9225C166.077 34.9225 165.334 36.1902 164.538 36.2593C164.538 36.2593 165.889 35.0517 165.787 34.8824C165.787 34.8824 164.358 34.8935 163.637 35.2834C164.283 34.8921 165.019 34.6771 165.773 34.6596C165.445 34.3283 165.028 34.1007 164.573 34.0045C164.573 34.0045 165.339 33.6324 166.126 34.6596C166.126 34.6596 167.236 34.6974 167.384 34.8111C167.384 34.8111 166.756 33.697 166.037 33.2381C166.037 33.2381 167.076 33.3584 167.677 34.8957L168.787 35.2299C168.787 35.2299 168.034 33.7015 167.422 33.2514C167.422 33.2514 168.465 33.5388 169.059 35.3369L170.091 35.8204C170.091 35.8204 169.543 34.4546 168.982 33.8151C168.982 33.8151 169.889 34.2897 170.393 35.9786L171.043 36.3841C171.043 36.3841 170.626 35.3926 170.48 35.1185C170.333 34.8445 170.395 34.7843 170.395 34.7843C170.86 35.2752 171.181 35.8861 171.32 36.5489C171.32 36.5489 172.592 37.4558 172.656 37.3822Z"
      fill="#AF8CF8"
    />
    <path
      d="M145.38 52.7445C145.38 52.7445 145.602 44.2556 139.729 45.4521C139.729 45.4521 138.677 45.2895 138.233 46.2564C138.233 46.2564 138.677 46.2564 138.553 47.1142C138.512 47.4201 138.508 47.7297 138.539 48.0366C138.58 48.4529 138.755 48.8444 139.039 49.1507C139.039 49.1507 140.097 51.499 144.004 52.2967C144.004 52.2967 144.872 52.9539 145.089 52.9183L144.424 51.5102C144.424 51.5102 143.414 52.0315 142.547 51.6773C142.547 51.6773 144.388 51.5681 144.337 51.2963C144.337 51.2406 143.956 50.5632 143.956 50.5632C143.956 50.5632 142.194 51.4656 140.874 50.8729C140.874 50.8729 143.093 51.04 143.818 50.307L143.199 49.32C143.199 49.32 141.384 50.3627 139.853 49.7478C139.853 49.7478 142.172 49.8413 143.05 49.1128L142.311 48.2216C142.311 48.2216 140.521 49.2064 139.252 48.685C139.252 48.685 141.941 48.5224 142.136 48.03C142.136 48.03 141.408 47.2568 141.116 47.1387C141.116 47.1387 139.815 47.8071 139.105 47.4462C139.105 47.4462 140.88 47.1476 140.891 46.9494C140.891 46.9494 139.678 46.194 138.859 46.1383C139.614 46.1519 140.352 46.3639 141 46.7533C140.899 46.2979 140.668 45.882 140.335 45.5568C140.335 45.5568 141.18 45.6526 141.295 46.9382C141.295 46.9382 142.221 47.5665 142.28 47.7403C142.28 47.7403 142.345 46.4547 141.974 45.6883C141.974 45.6883 142.791 46.3456 142.485 47.9676L143.246 48.8454C143.246 48.8454 143.419 47.1476 143.141 46.4414C143.141 46.4414 143.869 47.2412 143.421 49.0816L144.036 50.0419C144.036 50.0419 144.297 48.5914 144.158 47.7381C144.158 47.7381 144.672 48.6293 144.202 50.3248L144.539 51.0155C144.539 51.0155 144.71 49.9528 144.732 49.6431C144.754 49.3334 144.839 49.3133 144.839 49.3133C144.972 49.9779 144.919 50.6668 144.686 51.303C144.686 51.303 145.283 52.7735 145.38 52.7445Z"
      fill="#AF8CF8"
    />
    <path
      opacity="0.1"
      d="M155.09 160.609C158.39 160.609 161.065 160.155 161.065 159.595C161.065 159.035 158.39 158.581 155.09 158.581C151.79 158.581 149.114 159.035 149.114 159.595C149.114 160.155 151.79 160.609 155.09 160.609Z"
      fill="#AF8CF8"
    />
    <path
      opacity="0.1"
      d="M133.307 176C136.608 176 139.283 175.546 139.283 174.986C139.283 174.426 136.608 173.973 133.307 173.973C130.007 173.973 127.332 174.426 127.332 174.986C127.332 175.546 130.007 176 133.307 176Z"
      fill="#AF8CF8"
    />
    <path
      opacity="0.1"
      d="M20.6662 168.115C23.9663 168.115 26.6415 167.661 26.6415 167.101C26.6415 166.541 23.9663 166.087 20.6662 166.087C17.3661 166.087 14.6909 166.541 14.6909 167.101C14.6909 167.661 17.3661 168.115 20.6662 168.115Z"
      fill="#AF8CF8"
    />
    <path
      opacity="0.1"
      d="M178.629 174.986C181.929 174.986 184.605 174.532 184.605 173.972C184.605 173.413 181.929 172.959 178.629 172.959C175.329 172.959 172.654 173.413 172.654 173.972C172.654 174.532 175.329 174.986 178.629 174.986Z"
      fill="#AF8CF8"
    />
    <path
      d="M184.851 162.625C189.778 162.625 193.773 161.947 193.773 161.11C193.773 160.273 189.778 159.595 184.851 159.595C179.923 159.595 175.929 160.273 175.929 161.11C175.929 161.947 179.923 162.625 184.851 162.625Z"
      fill="#AF8CF8"
    />
    <path
      d="M188.55 158.63C188.957 158.298 189.254 157.849 189.4 157.342C189.511 156.83 189.293 156.217 188.807 156.03C188.261 155.821 187.678 156.199 187.234 156.583C186.79 156.966 186.287 157.405 185.707 157.325C186.005 157.053 186.227 156.71 186.353 156.327C186.479 155.944 186.504 155.534 186.426 155.139C186.401 154.975 186.332 154.821 186.227 154.693C185.923 154.368 185.375 154.508 185.011 154.764C183.857 155.58 183.535 157.153 183.529 158.57C183.413 158.06 183.511 157.527 183.509 157.01C183.506 156.493 183.362 155.896 182.921 155.625C182.65 155.473 182.343 155.396 182.033 155.402C181.514 155.384 180.935 155.435 180.582 155.816C180.138 156.288 180.256 157.084 180.637 157.599C181.019 158.113 181.603 158.445 182.14 158.806C182.569 159.064 182.936 159.415 183.213 159.833C183.245 159.892 183.271 159.953 183.291 160.016H186.544C187.272 159.648 187.947 159.181 188.55 158.63Z"
      fill="#AF8CF8"
    />
    <path
      d="M16.6545 162.389C16.6545 162.389 20.0605 162.284 21.0922 161.549C22.124 160.814 26.3353 159.938 26.5905 161.117C26.8456 162.295 31.7116 166.974 27.8641 167.005C24.0166 167.037 18.9244 166.404 17.8993 165.776C16.8742 165.147 16.6545 162.389 16.6545 162.389Z"
      fill="#A8A8A8"
    />
    <path
      opacity="0.2"
      d="M27.9284 166.595C24.081 166.627 18.9888 165.994 17.9637 165.366C17.1826 164.889 16.872 163.175 16.7677 162.384H16.6545C16.6545 162.384 16.8764 165.145 17.8949 165.771C18.9133 166.397 24.0122 167.032 27.8596 167.001C28.9691 167.001 29.3529 166.595 29.333 166.007C29.1776 166.366 28.7538 166.589 27.9284 166.595Z"
      fill="black"
    />
  </g>
  <defs>
    <linearGradient
      id="paint0_linear_4_3988"
      x1="49.4777"
      y1="96.568"
      x2="118.734"
      y2="96.568"
      gradientUnits="userSpaceOnUse"
    >
      <stop stop-color="#808080" stop-opacity="0.25" />
      <stop offset="0.54" stop-color="#808080" stop-opacity="0.12" />
      <stop offset="1" stop-color="#808080" stop-opacity="0.1" />
    </linearGradient>
    <clipPath id="clip0_4_3988">
      <rect width="224" height="176" fill="white" />
    </clipPath>
  </defs>
</svg>
