<svg
  width="152"
  height="170"
  viewBox="0 0 152 170"
  fill="none"
  xmlns="http://www.w3.org/2000/svg"
>
  <g clip-path="url(#clip0_492_8)">
    <path
      d="M84.9415 40.3983H84.0055V14.8099C84.0055 10.8821 82.442 7.11511 79.6589 4.33771C76.8757 1.56032 73.101 -1.03026e-05 69.1651 -1.52587e-05H14.8405C12.8916 -2.01668e-05 10.9618 0.383044 9.16127 1.12731C7.36074 1.87157 5.72474 2.96245 4.34667 4.33768C2.9686 5.7129 1.87546 7.34553 1.12965 9.14234C0.383839 10.9392 -2.62142e-05 12.865 -3.05176e-05 14.8098V155.19C-3.23619e-05 157.135 0.383822 159.061 1.12963 160.858C1.87543 162.654 2.96857 164.287 4.34664 165.662C5.72471 167.037 7.36071 168.128 9.16124 168.873C10.9618 169.617 12.8916 170 14.8404 170H69.165C73.1009 170 76.8757 168.44 79.6588 165.662C82.442 162.885 84.0055 159.118 84.0055 155.19V58.6126H84.9415V40.3983Z"
      fill="#E6E6E6"
    />
    <path
      d="M69.7638 3.85305H62.6727C62.9988 4.6509 63.1232 5.51654 63.0351 6.37371C62.947 7.23088 62.649 8.05328 62.1674 8.76845C61.6858 9.48362 61.0353 10.0696 60.2733 10.4748C59.5113 10.88 58.6611 11.092 57.7976 11.0921H26.6758C25.8124 11.092 24.9622 10.88 24.2002 10.4748C23.4381 10.0696 22.7877 9.48362 22.306 8.76844C21.8244 8.05327 21.5264 7.23087 21.4383 6.3737C21.3502 5.51652 21.4747 4.65088 21.8008 3.85303H15.1777C12.2383 3.85303 9.41941 5.01826 7.341 7.09238C5.26259 9.1665 4.09494 11.9796 4.09494 14.9129V155.087C4.09494 158.02 5.26258 160.834 7.34098 162.908C9.41939 164.982 12.2383 166.147 15.1776 166.147H69.7638C71.2192 166.147 72.6604 165.861 74.005 165.305C75.3496 164.749 76.5713 163.935 77.6005 162.908C78.6296 161.881 79.4459 160.661 80.0029 159.32C80.5599 157.978 80.8465 156.54 80.8465 155.087V14.9129C80.8465 13.4605 80.5599 12.0223 80.0029 10.6805C79.4459 9.33862 78.6296 8.11939 77.6005 7.09239C76.5713 6.06539 75.3496 5.25073 74.005 4.69492C72.6604 4.13911 71.2192 3.85304 69.7638 3.85305Z"
      fill="white"
    />
    <path
      d="M76.3423 113.949H10.8919C10.5705 113.948 10.2625 113.821 10.0352 113.594C9.80803 113.367 9.68021 113.06 9.67984 112.739V96.5371C9.68021 96.2164 9.80803 95.909 10.0352 95.6822C10.2625 95.4555 10.5705 95.3279 10.8919 95.3276H76.3423C76.6637 95.3279 76.9717 95.4555 77.199 95.6822C77.4262 95.909 77.554 96.2164 77.5544 96.5371V112.739C77.5539 113.06 77.4261 113.367 77.1989 113.594C76.9716 113.821 76.6636 113.948 76.3423 113.949ZM10.8919 95.8113C10.699 95.8115 10.5142 95.888 10.3778 96.0241C10.2415 96.1602 10.1648 96.3447 10.1646 96.5371V112.739C10.1648 112.932 10.2415 113.116 10.3778 113.252C10.5142 113.388 10.699 113.465 10.8919 113.465H76.3423C76.5352 113.465 76.72 113.388 76.8564 113.252C76.9927 113.116 77.0694 112.932 77.0696 112.739V96.5371C77.0694 96.3447 76.9927 96.1602 76.8564 96.0241C76.72 95.888 76.5352 95.8115 76.3423 95.8113H10.8919Z"
      fill="#E6E6E6"
    />
    <path
      d="M19.376 109.718C22.1874 109.718 24.4665 107.444 24.4665 104.638C24.4665 101.832 22.1874 99.5578 19.376 99.5578C16.5645 99.5578 14.2854 101.832 14.2854 104.638C14.2854 107.444 16.5645 109.718 19.376 109.718Z"
      fill="#E6E6E6"
    />
    <path
      d="M31.1328 101.251C30.9103 101.255 30.6981 101.346 30.542 101.504C30.3859 101.663 30.2984 101.876 30.2984 102.098C30.2984 102.32 30.3859 102.533 30.542 102.692C30.6981 102.85 30.9103 102.941 31.1328 102.945H71.1303C71.3553 102.949 71.5728 102.864 71.7349 102.708C71.8971 102.553 71.9906 102.339 71.995 102.114C71.9993 101.89 71.9141 101.673 71.7581 101.511C71.6021 101.349 71.388 101.256 71.163 101.251L71.1581 101.251C71.1488 101.251 71.1396 101.251 71.1303 101.251H31.1328Z"
      fill="#E6E6E6"
    />
    <path
      d="M31.1328 106.331C30.9103 106.335 30.6981 106.426 30.542 106.584C30.3859 106.743 30.2984 106.956 30.2984 107.178C30.2984 107.4 30.3859 107.613 30.542 107.772C30.6981 107.93 30.9103 108.021 31.1328 108.025H71.1302C71.3549 108.028 71.5716 107.942 71.7329 107.786C71.8941 107.63 71.9867 107.416 71.9904 107.192C71.9941 106.968 71.9086 106.751 71.7525 106.59C71.5965 106.429 71.3827 106.336 71.1581 106.331C71.1488 106.331 71.1395 106.331 71.1302 106.331H31.1328Z"
      fill="#E6E6E6"
    />
    <path
      d="M76.3423 141.042H10.8919C10.5705 141.042 10.2625 140.914 10.0352 140.688C9.80803 140.461 9.68021 140.153 9.67984 139.833V123.631C9.68021 123.31 9.80803 123.003 10.0352 122.776C10.2625 122.549 10.5705 122.422 10.8919 122.421H76.3423C76.6637 122.422 76.9717 122.549 77.199 122.776C77.4262 123.003 77.554 123.31 77.5544 123.631V139.833C77.5539 140.154 77.4261 140.461 77.1989 140.688C76.9716 140.914 76.6636 141.042 76.3423 141.042ZM10.8919 122.905C10.699 122.905 10.5142 122.982 10.3778 123.118C10.2415 123.254 10.1648 123.439 10.1646 123.631V139.833C10.1648 140.025 10.2415 140.21 10.3778 140.346C10.5142 140.482 10.699 140.559 10.8919 140.559H76.3423C76.5352 140.559 76.72 140.482 76.8564 140.346C76.9927 140.21 77.0694 140.025 77.0696 139.833V123.631C77.0694 123.439 76.9927 123.254 76.8564 123.118C76.72 122.982 76.5352 122.905 76.3423 122.905H10.8919Z"
      fill="#E6E6E6"
    />
    <path
      d="M19.376 136.812C22.1874 136.812 24.4665 134.537 24.4665 131.732C24.4665 128.926 22.1874 126.652 19.376 126.652C16.5645 126.652 14.2854 128.926 14.2854 131.732C14.2854 134.537 16.5645 136.812 19.376 136.812Z"
      fill="#E6E6E6"
    />
    <path
      d="M31.1328 128.345C30.9103 128.349 30.6981 128.44 30.542 128.598C30.3859 128.756 30.2984 128.97 30.2984 129.192C30.2984 129.414 30.3859 129.627 30.542 129.786C30.6981 129.944 30.9103 130.035 31.1328 130.038H71.1302C71.3549 130.042 71.5716 129.956 71.7329 129.8C71.8941 129.643 71.9867 129.43 71.9904 129.206C71.9941 128.982 71.9086 128.765 71.7525 128.604C71.5965 128.442 71.3827 128.349 71.1581 128.345C71.1488 128.345 71.1395 128.345 71.1302 128.345H31.1328Z"
      fill="#E6E6E6"
    />
    <path
      d="M31.1328 133.425C30.9103 133.429 30.6981 133.52 30.542 133.678C30.3859 133.837 30.2984 134.05 30.2984 134.272C30.2984 134.494 30.3859 134.707 30.542 134.866C30.6981 135.024 30.9103 135.115 31.1328 135.119H71.1302C71.3549 135.122 71.5716 135.036 71.7329 134.88C71.8941 134.724 71.9867 134.51 71.9904 134.286C71.9941 134.062 71.9086 133.845 71.7525 133.684C71.5965 133.523 71.3827 133.43 71.1581 133.425C71.1488 133.425 71.1395 133.425 71.1302 133.425H31.1328Z"
      fill="#E6E6E6"
    />
    <path
      d="M42.2397 80.327C36.1346 80.3296 30.2786 77.9118 25.9599 73.6056C21.6411 69.2993 19.2135 63.4574 19.2109 57.3649V57.3458C19.2109 57.2976 19.2109 57.2469 19.2137 57.1988C19.2839 44.6134 29.6139 34.3642 42.2397 34.3642C48.3473 34.3635 54.205 36.7841 58.5242 41.0934C62.8434 45.4028 65.2703 51.2479 65.271 57.3429C65.2717 63.4379 62.8462 69.2836 58.5279 73.5939C54.2097 77.9042 48.3525 80.3261 42.2449 80.3268H42.2397V80.327ZM42.2397 34.8475C36.2878 34.8608 30.5817 37.2174 26.361 41.4053C22.1403 45.5931 19.7462 51.2739 19.6987 57.2133C19.6961 57.2647 19.6961 57.3067 19.6961 57.3451C19.6956 61.7952 21.0174 66.1456 23.4944 69.846C25.9714 73.5465 29.4924 76.4309 33.6121 78.1344C37.7317 79.8379 42.2651 80.284 46.6388 79.4164C51.0126 78.5488 55.0303 76.4063 58.184 73.26C61.3376 70.1136 63.4855 66.1047 64.356 61.7402C65.2265 57.3757 64.7805 52.8516 63.0745 48.7399C61.3685 44.6283 58.4791 41.1139 54.7716 38.6411C51.0641 36.1682 46.7051 34.8481 42.2458 34.8475H42.2397Z"
      fill="#E6E6E6"
    />
    <path
      d="M73.7587 108.114C78.9297 108.114 83.1216 103.931 83.1216 98.7706C83.1216 93.6104 78.9297 89.4271 73.7587 89.4271C68.5878 89.4271 64.3959 93.6104 64.3959 98.7706C64.3959 103.931 68.5878 108.114 73.7587 108.114Z"
      fill="white"
    />
    <path
      d="M70.507 102.974C70.4909 102.974 70.4749 102.974 70.4588 102.974H65.4263C64.7877 102.964 64.1787 102.704 63.7306 102.249C63.2825 101.795 63.0313 101.184 63.031 100.546C63.0308 99.909 63.2815 99.2972 63.7292 98.8427C64.177 98.3882 64.7858 98.1276 65.4243 98.117H70.4611C70.4857 98.1165 70.5126 98.1165 70.5392 98.117C71.1816 98.1258 71.7945 98.3878 72.2441 98.8457C72.6937 99.3037 72.9437 99.9205 72.9394 100.562C72.9352 101.203 72.6771 101.816 72.2214 102.268C71.7657 102.72 71.1495 102.974 70.507 102.974Z"
      fill="#AF8CF8"
    />
    <path
      d="M80.8267 125.14C80.7671 125.048 80.7177 124.949 80.6793 124.846L79.4707 121.616C79.33 121.239 79.345 120.822 79.5125 120.455C79.6799 120.089 79.986 119.804 80.3637 119.663L107.339 109.611C107.717 109.471 108.135 109.486 108.502 109.653C108.869 109.82 109.155 110.125 109.296 110.502L110.505 113.732C110.574 113.919 110.607 114.118 110.6 114.317C110.593 114.516 110.546 114.712 110.463 114.893C110.38 115.075 110.263 115.238 110.116 115.374C109.97 115.51 109.799 115.616 109.611 115.686L82.6369 125.737C82.3121 125.858 81.9557 125.865 81.6266 125.756C81.2974 125.648 81.0153 125.43 80.8267 125.14Z"
      fill="#AF8CF8"
    />
    <path
      d="M107.253 108.777L96.2834 113.142C95.9378 113.245 95.6454 113.478 95.467 113.791C95.2886 114.104 95.2379 114.474 95.3254 114.823L96.5984 119.91C96.6486 120.111 96.7429 120.298 96.8744 120.458C97.0059 120.618 97.1713 120.748 97.3588 120.836C97.5463 120.925 97.7512 120.971 97.9587 120.972C98.1662 120.972 98.3713 120.926 98.559 120.838L109.559 115.672C109.907 115.541 110.189 115.278 110.344 114.94C110.499 114.602 110.513 114.217 110.384 113.869L109.061 109.6C108.931 109.252 108.667 108.969 108.328 108.815C107.989 108.661 107.602 108.647 107.253 108.777Z"
      fill="#2F2E41"
    />
    <path
      d="M127.327 140.465C126.983 140.505 126.635 140.426 126.342 140.242C126.048 140.057 125.827 139.779 125.714 139.452L116.324 112.288C116.259 112.099 116.232 111.9 116.244 111.701C116.256 111.502 116.307 111.307 116.395 111.128C116.482 110.949 116.604 110.788 116.754 110.656C116.903 110.524 117.077 110.422 117.266 110.357L120.532 109.233C120.914 109.102 121.332 109.128 121.694 109.304C122.057 109.48 122.335 109.793 122.467 110.173L131.856 137.337C131.987 137.718 131.962 138.135 131.785 138.497C131.608 138.859 131.295 139.136 130.914 139.268L127.648 140.392C127.544 140.428 127.436 140.452 127.327 140.465Z"
      fill="#AF8CF8"
    />
    <path
      d="M123.167 109.708L126.77 120.931C126.91 121.263 126.916 121.636 126.787 121.973C126.659 122.31 126.405 122.584 126.079 122.739L121.337 124.995C121.15 125.084 120.945 125.13 120.738 125.131C120.53 125.132 120.325 125.086 120.137 124.998C119.949 124.911 119.783 124.782 119.651 124.623C119.518 124.463 119.423 124.276 119.372 124.076L116.369 112.32C116.248 111.968 116.272 111.584 116.434 111.25C116.597 110.916 116.886 110.66 117.238 110.538L121.379 108.84C121.732 108.719 122.118 108.742 122.453 108.905C122.788 109.068 123.045 109.357 123.167 109.708Z"
      fill="#2F2E41"
    />
    <path
      d="M112.255 169.585H108.801C108.397 169.585 108.011 169.425 107.725 169.14C107.44 168.856 107.28 168.47 107.279 168.067V139.332C107.28 138.93 107.44 138.544 107.725 138.259C108.011 137.975 108.397 137.815 108.801 137.814H112.255C112.659 137.815 113.045 137.975 113.331 138.259C113.616 138.544 113.776 138.93 113.777 139.332V168.067C113.776 168.47 113.616 168.856 113.331 169.14C113.045 169.425 112.659 169.585 112.255 169.585Z"
      fill="#2F2E41"
    />
    <path
      d="M119.088 169.585H115.634C115.23 169.585 114.843 169.425 114.558 169.14C114.273 168.856 114.113 168.47 114.112 168.067V139.332C114.113 138.93 114.273 138.544 114.558 138.259C114.843 137.975 115.23 137.815 115.634 137.814H119.088C119.492 137.815 119.878 137.975 120.164 138.259C120.449 138.544 120.609 138.93 120.61 139.332V168.067C120.609 168.47 120.449 168.856 120.164 169.14C119.878 169.425 119.492 169.585 119.088 169.585Z"
      fill="#2F2E41"
    />
    <path
      d="M121.935 142.711H106.238C105.804 142.71 105.387 142.538 105.08 142.231C104.773 141.925 104.6 141.509 104.6 141.075V115.627C104.6 113.116 105.599 110.708 107.378 108.933C109.158 107.157 111.571 106.16 114.087 106.16C116.603 106.16 119.016 107.157 120.795 108.933C122.574 110.708 123.574 113.116 123.574 115.627V141.075C123.573 141.509 123.401 141.925 123.094 142.231C122.786 142.538 122.37 142.71 121.935 142.711Z"
      fill="#CCCCCC"
    />
    <path
      d="M124.298 148.936H116.34V104.051L116.488 104.091C118.729 104.705 120.707 106.035 122.118 107.879C123.528 109.722 124.294 111.976 124.298 114.296V148.936Z"
      fill="#2F2E41"
    />
    <path
      d="M111.187 148.936H103.229V114.296C103.232 111.976 103.998 109.722 105.409 107.879C106.82 106.035 108.798 104.705 111.039 104.091L111.187 104.051V148.936Z"
      fill="#2F2E41"
    />
    <path
      d="M113.968 100.896C120.887 100.896 126.495 95.2988 126.495 88.3944C126.495 81.4901 120.887 75.893 113.968 75.893C107.049 75.893 101.441 81.4901 101.441 88.3944C101.441 95.2988 107.049 100.896 113.968 100.896Z"
      fill="#AF8CF8"
    />
    <path
      d="M125 81C125 81 121.5 76.2588 121 63.2589C121 63.2589 117.936 60.064 106 78.7589L100 82.7588C100 82.7588 113.317 80.7588 129 88L125 81Z"
      fill="#2F2E41"
    />
    <path
      d="M86.0374 126.332C85.6995 126.488 85.3132 126.504 84.9634 126.377C84.6137 126.249 84.3291 125.988 84.1723 125.65L76.0943 108.275C75.9376 107.938 75.9216 107.553 76.0497 107.204C76.1777 106.855 76.4395 106.571 76.7773 106.414C77.1152 106.258 77.5015 106.242 77.8512 106.369C78.201 106.497 78.4855 106.758 78.6423 107.096L86.7203 124.471C86.877 124.808 86.8932 125.193 86.7651 125.542C86.637 125.892 86.3753 126.175 86.0374 126.332Z"
      fill="#3F3D56"
    />
    <path
      d="M77.7379 107.636C77.4896 107.636 77.2515 107.537 77.0759 107.362C76.9003 107.187 76.8016 106.949 76.8016 106.702V94.7996H65.0981C64.8498 94.7996 64.6117 94.7012 64.4361 94.526C64.2605 94.3508 64.1619 94.1131 64.1619 93.8653C64.1619 93.6175 64.2605 93.3798 64.4361 93.2046C64.6117 93.0294 64.8498 92.9309 65.0981 92.9309H77.7379C77.9862 92.9309 78.2244 93.0294 78.4 93.2046C78.5756 93.3798 78.6742 93.6175 78.6742 93.8653V106.702C78.6742 106.949 78.5756 107.187 78.4 107.362C78.2244 107.537 77.9862 107.636 77.7379 107.636Z"
      fill="#AF8CF8"
    />
    <path
      d="M77.9594 108.957C75.9437 109.89 73.6959 110.206 71.5002 109.864C69.3046 109.523 67.2598 108.539 65.6244 107.038C63.9889 105.536 62.8363 103.585 62.3123 101.43C61.7883 99.2748 61.9165 97.0131 62.6805 94.9307C63.4446 92.8483 64.8102 91.0388 66.6048 89.731C68.3994 88.4232 70.5422 87.6758 72.7625 87.5834C74.9827 87.4909 77.1805 88.0576 79.078 89.2117C80.9755 90.3657 82.4875 92.0554 83.4227 94.067C84.6733 96.765 84.8005 99.8478 83.7763 102.639C82.7521 105.431 80.6601 107.703 77.9594 108.957ZM69.6844 91.1577C68.1726 91.8577 66.9027 92.9893 66.0354 94.4095C65.168 95.8297 64.7422 97.4747 64.8117 99.1365C64.8811 100.798 65.4428 102.402 66.4257 103.745C67.4086 105.088 68.7685 106.11 70.3335 106.682C71.8985 107.254 73.5983 107.35 75.2179 106.958C76.8375 106.566 78.3042 105.703 79.4325 104.479C80.5609 103.255 81.3001 101.724 81.5568 100.081C81.8135 98.4378 81.5762 96.7554 80.8748 95.2467C79.9322 93.2254 78.2247 91.6597 76.1268 90.8931C74.029 90.1265 71.7121 90.2217 69.6844 91.1577Z"
      fill="#3F3D56"
    />
  </g>
  <defs>
    <clipPath id="clip0_492_8">
      <rect width="152" height="170" fill="white" />
    </clipPath>
  </defs>
</svg>
