<svg
  width="58"
  height="58"
  viewBox="0 0 58 58"
  fill="none"
  xmlns="http://www.w3.org/2000/svg"
>
  <path
    fill-rule="evenodd"
    clip-rule="evenodd"
    d="M24.1667 28.6306L48.3333 24.6028V34.9609C46.9028 34.2409 45.2477 33.8333 43.5 33.8333C38.2488 33.8333 33.8333 37.5129 33.8333 42.2917C33.8333 47.0705 38.2488 50.75 43.5 50.75C48.7512 50.75 53.1667 47.0705 53.1667 42.2917V4.39722L19.3333 10.0361V37.3776C17.9028 36.6576 16.2477 36.25 14.5 36.25C9.24877 36.25 4.83333 39.9295 4.83333 44.7083C4.83333 49.4871 9.24877 53.1667 14.5 53.1667C19.7512 53.1667 24.1667 49.4871 24.1667 44.7083V28.6306ZM19.3333 44.7083C19.3333 46.603 17.2569 48.3333 14.5 48.3333C11.7431 48.3333 9.66667 46.603 9.66667 44.7083C9.66667 42.8137 11.7431 41.0833 14.5 41.0833C17.2569 41.0833 19.3333 42.8137 19.3333 44.7083ZM43.5 45.9167C46.2569 45.9167 48.3333 44.1863 48.3333 42.2917C48.3333 40.397 46.2569 38.6667 43.5 38.6667C40.7431 38.6667 38.6667 40.397 38.6667 42.2917C38.6667 44.1863 40.7431 45.9167 43.5 45.9167ZM24.1667 23.7305V14.1305L48.3333 10.1028V19.7028L24.1667 23.7305Z"
    fill="#4C269A"
  />
</svg>
